<svg width="225" height="542" viewBox="0 0 225 542" fill="none" xmlns="http://www.w3.org/2000/svg">
<g opacity="0.3">
<path d="M66.0067 209.757C45.3877 191.357 8.47925 179.092 -33.6214 179.092C-75.7221 179.092 -112.631 191.352 -133.25 209.757H-150.655C-150.655 228.726 -148.78 235.177 -148.47 243.648C-147.168 279.275 -98.2577 308.204 -33.6214 308.204C31.0149 308.204 80.8754 279.275 82.3168 243.648C82.663 235.156 83.407 230.173 83.407 209.675L66.0067 209.757Z" fill="#C6640C"/>
<path d="M13.175 250.703C11.8111 275.027 13.175 302.73 13.175 302.73C37.7358 296.652 57.554 285.907 69.5812 272.499C83.4064 253.381 81.2366 233.507 81.2366 214.797C81.2366 214.802 14.4459 227.951 13.175 250.703Z" fill="#A3490A"/>
<path d="M83.4123 209.675C83.4123 245.328 31.0151 277.59 -33.6212 277.59C-98.2576 277.59 -150.655 245.411 -150.655 209.757C-150.655 174.104 -98.2576 145.202 -33.6212 145.202C31.0151 145.202 83.4123 174.022 83.4123 209.675Z" fill="url(#paint0_radial_1_628)"/>
<path opacity="0.7" d="M18.9873 185.279L67.7422 242.883C70.6457 239.921 72.6192 237.585 75.2127 233.998L-2.88713 147.455C-8.23948 146.654 -13.7468 146.054 -19.3781 145.677L18.9873 185.279Z" fill="#FCFFAC"/>
<path d="M-31.4364 260.301C16.7559 260.301 55.8234 238.753 55.8234 212.171C55.8234 185.59 16.7559 164.041 -31.4364 164.041C-79.6286 164.041 -118.696 185.59 -118.696 212.171C-118.696 238.753 -79.6286 260.301 -31.4364 260.301Z" fill="#FCFFAC"/>
<path d="M-33.621 258.156C14.8366 258.156 54.1193 236.487 54.1193 209.758C54.1193 183.028 14.8366 161.359 -33.621 161.359C-82.0787 161.359 -121.361 183.028 -121.361 209.758C-121.361 236.487 -82.0787 258.156 -33.621 258.156Z" fill="#FBAA12"/>
<path opacity="0.3" d="M38.191 181.945C44.184 188.494 47.5628 195.895 47.5628 203.731C47.5628 230.458 8.2778 252.13 -40.1775 252.13C-69.8685 252.13 -96.1136 243.994 -111.99 231.548C-97.5396 247.333 -67.8692 258.161 -33.6214 258.161C14.8339 258.161 54.1189 236.495 54.1189 209.763C54.1189 199.405 48.2292 189.812 38.191 181.945Z" fill="#EA831C"/>
<path opacity="0.25" d="M-147.039 193.781C-136.07 213.629 -102.613 228.07 -63.0387 228.07C-14.5473 228.07 24.7635 206.388 24.7635 179.64C24.7635 167.881 17.1638 157.1 4.52693 148.711C-7.42802 146.437 -20.2613 145.202 -33.6215 145.202C-88.2557 145.202 -134.149 165.855 -147.039 193.781Z" fill="#FFFFEB"/>
<path d="M-23.588 210.362C-8.16646 211.019 31.1805 214.218 5.14725 229.631C-22.1311 245.777 -30.1286 231.197 -33.0735 219.082C-36.0183 231.197 -44.0158 245.777 -71.2942 229.631C-97.3275 214.218 -57.9805 211.019 -42.5589 210.362C-57.9805 209.706 -97.3275 206.506 -71.2942 191.094C-44.0158 174.947 -37.1136 190.985 -34.1687 203.1C-31.2239 190.985 -22.1363 174.942 5.14208 191.094C31.1805 206.501 -8.16646 209.706 -23.588 210.362Z" fill="#C6640C"/>
<path d="M-24.6835 209.158C-9.26189 209.815 30.0851 213.014 4.05182 228.427C-23.2266 244.573 -31.2241 229.993 -34.1689 217.878C-37.1137 229.993 -45.1113 244.573 -72.3896 228.427C-98.4229 213.014 -59.0759 209.815 -43.6543 209.158C-59.0759 208.502 -98.4229 205.302 -72.3896 189.89C-45.1113 173.743 -37.1137 188.323 -34.1689 200.439C-31.2241 188.323 -23.2266 173.743 4.05182 189.89C30.0851 205.297 -9.25672 208.497 -24.6835 209.158Z" fill="#FCE13C"/>
<path d="M-33.0732 201.638C-30.1284 189.523 -22.1308 174.942 5.14753 191.089C7.9167 192.727 9.93673 194.226 11.3368 195.601C9.99873 193.911 7.65839 192.014 4.05743 189.884C-22.1515 174.368 -30.5572 187.217 -33.7913 198.997C-33.5227 199.881 -33.285 200.77 -33.0732 201.638Z" fill="#FCFFAC"/>
<path d="M-14.6551 209.804C-18.0029 210.084 6.12912 212.26 12.0859 217.356C9.09461 212.849 -3.82646 210.766 -14.6551 209.804Z" fill="#FCFFAC"/>
<path opacity="0.25" d="M1.81487 212.285C-6.61147 210.213 -17.9361 209.443 -24.6834 209.153C-9.26183 208.497 30.0852 205.297 4.05188 189.885C-23.2265 173.738 -31.224 188.319 -34.1688 200.434C-37.1137 188.319 -45.1112 173.738 -72.3896 189.885C-98.4229 205.297 -59.0758 208.497 -43.6543 209.153C-58.8434 209.799 -97.2294 212.916 -73.5313 227.729C-70.0905 227.956 -66.5929 228.07 -63.0436 228.07C-53.9818 228.07 -45.2403 227.31 -37.0155 225.905C-35.7187 223.346 -34.8198 220.55 -34.1688 217.873C-33.6005 220.209 -32.8463 222.633 -31.8027 224.912C-18.8454 222.194 -7.36059 217.831 1.81487 212.285Z" fill="#FFFFEB"/>
<path d="M-119.176 211.567C-119.176 184.84 -79.891 163.168 -31.4357 163.168C-1.66194 163.168 24.6503 171.35 40.511 183.858C24.95 170.337 -2.43689 161.359 -33.621 161.359C-82.0763 161.359 -121.361 183.026 -121.361 209.758C-121.361 220.064 -115.523 229.615 -105.568 237.466C-114.185 229.977 -119.176 221.092 -119.176 211.567Z" fill="#CF7310"/>
<path d="M80.5352 224.142C74.5732 200.888 38.9511 182.1 -4.7046 180.658C-53.134 179.061 -116.644 193.337 -117.522 220.048C-118.349 245.1 -60.9715 272.928 -16.8249 276.856C31.2946 272.623 69.9493 250.589 80.5352 224.142Z" fill="#342D3F"/>
<path d="M76.9442 165.524C56.3252 147.124 19.4168 134.859 -22.6839 134.859C-64.7846 134.859 -101.693 147.119 -122.312 165.524H-139.717C-139.717 184.493 -137.842 190.944 -137.532 199.415C-136.23 235.042 -87.3202 263.971 -22.6839 263.971C41.9524 263.971 91.813 235.042 93.2544 199.415C93.6005 190.923 94.3497 185.94 94.3497 165.442L76.9442 165.524Z" fill="#C6640C"/>
<path d="M24.1182 206.47C22.7595 230.794 24.1182 258.498 24.1182 258.498C48.6791 252.419 68.4973 241.674 80.5246 228.266C94.3549 209.148 92.1798 189.28 92.1798 170.564C92.1798 170.564 25.3892 183.713 24.1182 206.47Z" fill="#A3490A"/>
<path d="M94.3497 165.442C94.3497 201.095 41.9524 233.357 -22.6839 233.357C-87.3202 233.357 -139.717 201.178 -139.717 165.525C-139.717 129.872 -87.3202 100.969 -22.6839 100.969C41.9524 100.969 94.3497 129.789 94.3497 165.442Z" fill="url(#paint1_radial_1_628)"/>
<path opacity="0.7" d="M29.9245 141.046L78.6795 198.65C81.583 195.688 83.5565 193.352 86.1501 189.765L8.05019 103.222C2.69784 102.421 -2.80953 101.822 -8.44086 101.444L29.9245 141.046Z" fill="#FCFFAC"/>
<path d="M-20.4931 216.063C27.6992 216.063 66.7667 194.515 66.7667 167.933C66.7667 141.352 27.6992 119.803 -20.4931 119.803C-68.6853 119.803 -107.753 141.352 -107.753 167.933C-107.753 194.515 -68.6853 216.063 -20.4931 216.063Z" fill="#FCFFAC"/>
<path d="M-22.6788 213.923C25.7788 213.923 65.0615 192.255 65.0615 165.525C65.0615 138.795 25.7788 117.126 -22.6788 117.126C-71.1364 117.126 -110.419 138.795 -110.419 165.525C-110.419 192.255 -71.1364 213.923 -22.6788 213.923Z" fill="#FBAA12"/>
<path opacity="0.3" d="M49.1337 137.707C55.1266 144.256 58.5054 151.657 58.5054 159.493C58.5054 186.22 19.2204 207.892 -29.2349 207.892C-58.9259 207.892 -85.171 199.756 -101.047 187.31C-86.5969 203.095 -56.9265 213.923 -22.6787 213.923C25.7766 213.923 65.0615 192.257 65.0615 165.525C65.0615 155.172 59.1667 145.579 49.1337 137.707Z" fill="#EA831C"/>
<path opacity="0.25" d="M-136.101 149.543C-125.133 169.391 -91.6755 183.832 -52.1012 183.832C-3.60976 183.832 35.7011 162.149 35.7011 135.402C35.7011 123.643 28.1013 112.862 15.4644 104.473C3.50948 102.199 -9.32375 100.963 -22.684 100.963C-77.3182 100.969 -123.211 121.622 -136.101 149.543Z" fill="#FFFFEB"/>
<path d="M-12.6509 166.124C2.77071 166.781 42.1177 169.98 16.0844 185.393C-11.194 201.54 -19.1915 186.959 -22.1363 174.844C-25.0811 186.959 -33.0787 201.54 -60.357 185.393C-86.3903 169.98 -47.0433 166.781 -31.6218 166.124C-47.0433 165.468 -86.3903 162.269 -60.357 146.856C-33.0787 130.709 -26.1764 146.747 -23.2316 158.863C-20.2867 146.747 -11.1991 130.704 16.0792 146.856C42.1177 162.269 2.77588 165.468 -12.6509 166.124Z" fill="#C6640C"/>
<path d="M-13.7408 164.92C1.68075 165.576 41.0277 168.776 14.9945 184.188C-12.2839 200.335 -20.2815 185.755 -23.2263 173.639C-26.1712 185.755 -34.1686 200.335 -61.447 184.188C-87.4803 168.776 -48.1333 165.576 -32.7117 164.92C-48.1333 164.264 -87.4803 161.064 -61.447 145.651C-34.1686 129.505 -26.1712 144.085 -23.2263 156.201C-20.2815 144.085 -12.2839 129.505 14.9945 145.651C41.0277 161.064 1.68075 164.264 -13.7408 164.92Z" fill="#FCE13C"/>
<path d="M-22.1307 157.405C-19.1859 145.29 -11.1883 130.709 16.0901 146.856C18.8593 148.494 20.8793 149.993 22.2794 151.368C20.9413 149.678 18.601 147.781 15 145.651C-11.2089 130.135 -19.6146 142.984 -22.8488 154.764C-22.5853 155.647 -22.3477 156.531 -22.1307 157.405Z" fill="#FCFFAC"/>
<path d="M-3.71258 165.571C-7.06038 165.85 17.0717 168.026 23.0285 173.122C20.0372 168.61 7.11611 166.527 -3.71258 165.571Z" fill="#FCFFAC"/>
<path opacity="0.25" d="M12.7574 168.052C4.33105 165.98 -6.99357 165.209 -13.7408 164.92C1.68075 164.264 41.0277 161.064 14.9945 145.651C-12.2839 129.505 -20.2815 144.085 -23.2263 156.201C-26.1712 144.085 -34.1686 129.505 -61.447 145.651C-87.4803 161.064 -48.1333 164.264 -32.7117 164.92C-47.9008 165.566 -86.2869 168.683 -62.5888 183.496C-59.148 183.723 -55.6504 183.837 -52.1011 183.837C-43.0393 183.837 -34.2978 183.077 -26.0729 181.671C-24.7762 179.113 -23.8773 176.317 -23.2263 173.639C-22.658 175.976 -21.9037 178.4 -20.8601 180.679C-7.90804 177.96 3.57676 173.598 12.7574 168.052Z" fill="#FFFFEB"/>
<path d="M-108.234 167.328C-108.234 140.601 -68.9487 118.929 -20.4934 118.929C9.2803 118.929 35.5926 127.111 51.4533 139.619C35.8922 126.098 8.50536 117.12 -22.6788 117.12C-71.1341 117.12 -110.419 138.787 -110.419 165.519C-110.419 175.825 -104.581 185.377 -94.6255 193.228C-103.243 185.744 -108.234 176.859 -108.234 167.328Z" fill="#CF7310"/>
<path d="M-139.713 165.524C-139.713 188.835 -72.8496 223.511 -36.9899 232.83C-32.2988 233.181 -27.5251 233.362 -22.679 233.362C41.9573 233.362 94.3545 201.1 94.3545 165.447C94.3545 156.516 91.0687 148.013 85.1223 140.286C65.8466 128.92 38.4131 121.819 7.97296 121.819C-50.3707 121.814 -139.713 133.34 -139.713 165.524Z" fill="#342D3F"/>
<path d="M54.6616 108.732C34.0426 90.3317 -2.86581 78.0666 -44.9665 78.0666C-87.0671 78.0666 -123.976 90.3265 -144.595 108.732H-162C-162 127.701 -160.125 134.151 -159.815 142.622C-158.513 178.25 -109.603 207.178 -44.9665 207.178C19.6698 207.178 69.5304 178.25 70.9718 142.622C71.318 134.13 72.0619 129.148 72.0619 108.649L54.6616 108.732Z" fill="#C6640C"/>
<path d="M1.83012 149.677C0.466205 174.001 1.83012 201.705 1.83012 201.705C26.391 195.626 46.2092 184.881 58.2365 171.473C72.0616 152.355 69.8918 132.487 69.8918 113.771C69.8918 113.771 3.10621 126.925 1.83012 149.677Z" fill="#A3490A"/>
<path d="M72.0671 108.649C72.0671 144.302 19.6698 176.565 -44.9665 176.565C-109.603 176.565 -162 144.385 -162 108.732C-162 73.0789 -109.603 44.176 -44.9665 44.176C19.6698 44.176 72.0671 72.9962 72.0671 108.649Z" fill="url(#paint2_radial_1_628)"/>
<path opacity="0.7" d="M7.64203 84.2532L56.397 141.857C59.3004 138.896 61.274 136.559 63.8676 132.972L-14.2323 46.4294C-19.5847 45.6283 -25.092 45.0287 -30.7233 44.6514L7.64203 84.2532Z" fill="#FCFFAC"/>
<path d="M-42.7818 159.27C5.41048 159.27 44.478 137.722 44.478 111.14C44.478 84.5589 5.41048 63.0103 -42.7818 63.0103C-90.974 63.0103 -130.042 84.5589 -130.042 111.14C-130.042 137.722 -90.974 159.27 -42.7818 159.27Z" fill="#FCFFAC"/>
<path d="M-44.9664 157.131C3.49118 157.131 42.7738 135.462 42.7738 108.732C42.7738 82.0019 3.49118 60.3331 -44.9664 60.3331C-93.4241 60.3331 -132.707 82.0019 -132.707 108.732C-132.707 135.462 -93.4241 157.131 -44.9664 157.131Z" fill="#FBAA12"/>
<path opacity="0.3" d="M26.8461 80.9196C32.8391 87.4682 36.2178 94.8697 36.2178 102.705C36.2178 129.432 -3.06715 151.104 -51.5224 151.104C-81.2135 151.104 -107.459 142.969 -123.335 130.523C-108.885 146.308 -79.2141 157.136 -44.9663 157.136C3.48896 157.136 42.7739 135.469 42.7739 108.737C42.7739 98.3791 36.8843 88.7862 26.8461 80.9196Z" fill="#EA831C"/>
<path opacity="0.25" d="M-158.384 92.7556C-147.415 112.603 -113.958 127.044 -74.3838 127.044C-25.8923 127.044 13.4185 105.362 13.4185 78.6143C13.4185 66.8557 5.81874 56.074 -6.81816 47.6854C-18.7731 45.4112 -31.6063 44.1759 -44.9665 44.1759C-99.6008 44.1759 -145.494 64.8297 -158.384 92.7556Z" fill="#FFFFEB"/>
<path d="M-34.9331 109.336C-19.5116 109.993 19.8355 113.192 -6.19781 128.605C-33.4762 144.752 -41.4737 130.171 -44.4186 118.056C-47.3634 130.171 -55.3609 144.752 -82.6393 128.605C-108.673 113.192 -69.3256 109.993 -53.904 109.336C-69.3256 108.68 -108.673 105.481 -82.6393 90.0679C-55.3609 73.9212 -48.4586 89.9594 -45.5138 102.075C-42.569 89.9594 -33.4814 73.916 -6.20298 90.0679C19.8355 105.476 -19.5116 108.675 -34.9331 109.336Z" fill="#C6640C"/>
<path d="M-36.0287 108.128C-20.6071 108.784 18.7399 111.983 -7.29339 127.396C-34.5718 143.543 -42.5693 128.962 -45.5141 116.847C-48.459 128.962 -56.4565 143.543 -83.7348 127.396C-109.768 111.983 -70.4211 108.784 -54.9996 108.128C-70.4211 107.471 -109.768 104.272 -83.7348 88.8591C-56.4565 72.7124 -48.459 87.2931 -45.5141 99.4083C-42.5693 87.2931 -34.5718 72.7124 -7.29339 88.8591C18.7399 104.272 -20.602 107.471 -36.0287 108.128Z" fill="#FCE13C"/>
<path d="M-25.9958 108.778C-29.3436 109.057 -5.21158 111.233 0.745234 116.33C-2.24609 111.823 -15.1723 109.74 -25.9958 108.778Z" fill="#FCFFAC"/>
<path opacity="0.25" d="M-9.53046 111.26C-17.9568 109.187 -29.2814 108.417 -36.0287 108.128C-20.6071 107.471 18.7399 104.272 -7.29339 88.8591C-34.5718 72.7124 -42.5693 87.2931 -45.5141 99.4083C-48.459 87.2931 -56.4565 72.7124 -83.7348 88.8591C-109.768 104.272 -70.4211 107.471 -54.9996 108.128C-70.1887 108.774 -108.575 111.89 -84.8766 126.704C-81.4358 126.931 -77.9382 127.045 -74.3889 127.045C-65.3271 127.045 -56.5857 126.285 -48.3608 124.879C-47.0641 122.321 -46.1651 119.524 -45.5141 116.847C-44.9458 119.183 -44.1915 121.607 -43.1479 123.887C-30.1907 121.168 -18.7059 116.806 -9.53046 111.26Z" fill="#FFFFEB"/>
<path d="M-130.521 110.541C-130.521 83.814 -91.2364 62.1421 -42.7811 62.1421C-13.0074 62.1421 13.3049 70.324 29.1656 82.832C13.6046 69.3109 -13.7823 60.3331 -44.9664 60.3331C-93.4217 60.3331 -132.707 81.9999 -132.707 108.732C-132.707 119.038 -126.869 128.59 -116.913 136.441C-125.531 128.951 -130.521 120.067 -130.521 110.541Z" fill="#CF7310"/>
<path d="M69.189 123.111C63.227 99.8577 27.6049 81.0698 -16.0508 79.6278C-64.4802 78.0307 -104.457 98.395 -105.336 125.111C-106.162 150.164 -72.3176 171.903 -28.1659 175.831C19.9484 171.598 58.6083 149.564 69.189 123.111Z" fill="#342D3F"/>
<path d="M95.5948 64.5558C74.9758 46.1556 38.0673 33.8905 -4.03337 33.8905C-46.134 33.8905 -83.0425 46.1504 -103.661 64.5558H-121.067C-121.067 83.5246 -119.192 89.975 -118.882 98.4463C-117.58 134.073 -68.6697 163.002 -4.03337 163.002C60.603 163.002 110.464 134.073 111.905 98.4463C112.251 89.9543 112.995 84.9718 112.995 64.4731L95.5948 64.5558Z" fill="#C6640C"/>
<path d="M42.7629 105.502C41.4041 129.825 42.7629 157.529 42.7629 157.529C67.3238 151.451 87.1419 140.705 99.1692 127.298C112.994 108.179 110.824 88.3058 110.824 69.5955C110.824 69.6006 44.039 82.7495 42.7629 105.502Z" fill="#A3490A"/>
<path d="M113 64.4731C113 100.126 60.6029 132.389 -4.03338 132.389C-68.6697 132.389 -121.067 100.209 -121.067 64.5558C-121.067 28.9028 -68.6697 0 -4.03338 0C60.6029 0 113 28.8253 113 64.4731Z" fill="url(#paint3_radial_1_628)"/>
<path opacity="0.7" d="M48.5751 40.0824L97.33 97.6865C100.234 94.7248 102.207 92.3887 104.801 88.8017L26.7007 2.25856C21.3483 1.45743 15.841 0.857899 10.2097 0.480591L48.5751 40.0824Z" fill="#FCFFAC"/>
<path d="M-1.84276 115.1C46.3495 115.1 85.4171 93.5512 85.4171 66.9697C85.4171 40.3882 46.3495 18.8397 -1.84276 18.8397C-50.035 18.8397 -89.1025 40.3882 -89.1025 66.9697C-89.1025 93.5512 -50.035 115.1 -1.84276 115.1Z" fill="#FCFFAC"/>
<path d="M-4.03317 112.955C44.4244 112.955 83.7072 91.2859 83.7072 64.556C83.7072 37.826 44.4244 16.1572 -4.03317 16.1572C-52.4908 16.1572 -91.7734 37.826 -91.7734 64.556C-91.7734 91.2859 -52.4908 112.955 -4.03317 112.955Z" fill="#FBAA12"/>
<path opacity="0.3" d="M67.784 36.7435C73.777 43.2921 77.1558 50.6936 77.1558 58.5292C77.1558 85.256 37.8708 106.928 -10.5845 106.928C-40.2756 106.928 -66.5207 98.7926 -82.3969 86.3466C-67.9466 102.132 -38.2762 112.96 -4.0284 112.96C44.4269 112.96 83.7119 91.293 83.7119 64.561C83.7119 54.2083 77.8171 44.6153 67.784 36.7435Z" fill="#EA831C"/>
<path opacity="0.25" d="M-117.45 48.5797C-106.482 68.4271 -73.0248 82.8682 -33.4505 82.8682C15.041 82.8682 54.3518 61.1859 54.3518 34.4384C54.3518 22.6798 46.7521 11.8981 34.1152 3.5095C22.1602 1.23532 9.32695 0 -4.03326 0C-58.6675 0.0051686 -104.56 20.6537 -117.45 48.5797Z" fill="#FFFFEB"/>
<path d="M-89.5881 66.365C-89.5881 39.6381 -50.3031 17.9662 -1.84782 17.9662C27.9259 17.9662 54.2382 26.1481 70.0989 38.6561C54.5378 25.135 27.151 16.1572 -4.03317 16.1572C-52.4885 16.1572 -91.7734 37.824 -91.7734 64.556C-91.7734 74.8622 -85.9354 84.4137 -75.9799 92.2648C-84.5974 84.7755 -89.5881 75.8959 -89.5881 66.365Z" fill="#CF7310"/>
<path d="M201.123 408.235C173.203 383.319 123.226 366.711 66.2171 366.711C9.20863 366.711 -40.7691 383.312 -68.6892 408.235H-92.2579C-92.2579 433.92 -89.7185 442.655 -89.2987 454.126C-87.5358 502.368 -21.3069 541.541 66.2171 541.541C153.741 541.541 221.257 502.368 223.209 454.126C223.678 442.627 224.692 435.88 224.692 408.123L201.123 408.235Z" fill="#C6640C"/>
<path d="M129.585 463.679C127.738 496.615 129.585 534.129 129.585 534.129C162.843 525.898 189.678 511.348 205.965 493.193C224.685 467.304 221.747 440.401 221.747 415.058C221.747 415.058 131.313 432.863 129.585 463.679Z" fill="#A3490A"/>
<path d="M41.3053 540.449L37.9194 494.732L21.4373 440.919L-76.9721 422.162L-73.6281 491.807C-65.8348 501.038 -55.3692 509.374 -42.7208 516.464L-42.2451 455.28L0.575958 476.661L3.18536 492.164L2.3249 533.933C14.4835 537.019 27.5446 539.231 41.3053 540.449Z" fill="#DD8D19"/>
<path d="M224.692 408.122C224.692 456.4 153.741 500.087 66.2171 500.087C-21.3069 500.087 -92.2579 456.512 -92.2579 408.234C-92.2579 359.957 -21.3069 320.819 66.2171 320.819C153.741 320.819 224.692 359.845 224.692 408.122Z" fill="url(#paint4_radial_1_628)"/>
<path opacity="0.7" d="M-21.4258 415.17L-58.4684 354.273C-69.4937 362.014 -78.1965 370.805 -84.0099 380.33L3.18526 492.171C13.9028 494.788 24.1376 496.951 36.0374 498.33L-21.4258 415.17Z" fill="#FCFFAC"/>
<path d="M21.7379 362.189L28.4748 357.822L6.55704 327.224C2.38057 328.161 -1.69796 329.19 -5.68555 330.31L21.7379 362.189Z" fill="#FCFFAC"/>
<path opacity="0.7" d="M137.455 375.088L203.474 453.09C207.406 449.08 210.078 445.916 213.59 441.059L107.835 323.871C100.588 322.786 93.1302 321.974 85.5118 321.463L137.455 375.088Z" fill="#FCFFAC"/>
<path d="M69.1763 476.669C134.433 476.669 187.335 447.49 187.335 411.496C187.335 375.502 134.433 346.323 69.1763 346.323C3.91919 346.323 -48.9822 375.502 -48.9822 411.496C-48.9822 447.49 3.91919 476.669 69.1763 476.669Z" fill="#FCFFAC"/>
<path d="M66.2173 473.771C131.834 473.771 185.026 444.43 185.026 408.235C185.026 372.04 131.834 342.698 66.2173 342.698C0.600845 342.698 -52.5918 372.04 -52.5918 408.235C-52.5918 444.43 0.600845 473.771 66.2173 473.771Z" fill="#FBAA12"/>
<path opacity="0.3" d="M163.458 370.567C171.573 379.434 176.149 389.457 176.149 400.067C176.149 436.258 122.953 465.604 57.3395 465.604C17.1348 465.604 -18.4036 454.587 -39.9016 437.734C-20.3345 459.109 19.8422 473.771 66.2171 473.771C131.83 473.771 185.026 444.432 185.026 408.234C185.026 394.216 177.051 381.226 163.458 370.567Z" fill="#EA831C"/>
<path opacity="0.25" d="M-87.361 386.594C-72.509 413.47 -27.2044 433.024 26.3832 433.024C92.0454 433.024 145.276 403.664 145.276 367.445C145.276 351.523 134.985 336.924 117.874 325.565C101.686 322.485 84.3081 320.812 66.2171 320.812C-7.76316 320.819 -69.9065 348.787 -87.361 386.594Z" fill="#FFFFEB"/>
<path d="M79.8027 409.046C100.685 409.935 153.965 414.267 118.713 435.138C81.7755 457.002 70.946 437.258 66.9584 420.853C62.9709 437.258 52.1414 457.002 15.2038 435.138C-20.0479 414.267 33.2319 409.935 54.1142 409.046C33.2319 408.157 -20.0479 403.825 15.2038 382.955C52.1414 361.09 61.4878 382.808 65.4753 399.213C69.4629 382.808 81.7685 361.083 118.706 382.955C153.965 403.825 100.685 408.157 79.8027 409.046Z" fill="#C6640C"/>
<path d="M78.3197 407.416C99.202 408.304 152.482 412.637 117.23 433.507C80.2925 455.371 69.463 435.628 65.4754 419.223C61.4878 435.628 50.6584 455.371 13.7207 433.507C-21.5309 412.637 31.7488 408.304 52.6312 407.416C31.7488 406.527 -21.5309 402.195 13.7207 381.324C50.6584 359.46 61.4878 379.203 65.4754 395.609C69.463 379.203 80.2925 359.46 117.23 381.324C152.482 402.195 99.209 406.527 78.3197 407.416Z" fill="#FCE13C"/>
<path d="M40.5356 408.164C19.8911 409.879 -7.68618 414.568 5.34694 427.39C-5.92324 413.141 45.6355 408.619 40.5356 408.164Z" fill="#FCFFAC"/>
<path d="M66.9588 397.239C70.9464 380.834 81.7758 361.09 118.713 382.955C122.463 385.173 125.199 387.203 127.094 389.064C125.289 386.776 122.113 384.207 117.237 381.324C81.7479 360.313 70.3657 377.712 65.9864 393.663C66.3502 394.859 66.6719 396.056 66.9588 397.239Z" fill="#FCFFAC"/>
<path d="M91.8988 408.297C87.3656 408.675 120.043 411.622 128.109 418.523C124.058 412.413 106.562 409.592 91.8988 408.297Z" fill="#FCFFAC"/>
<path d="M15.2041 382.955C37.8144 369.573 50.6376 371.778 58.1021 379.266C50.8965 370.525 37.9053 367.011 13.721 381.324C1.13558 388.778 -0.158637 394.118 4.31865 397.946C1.87713 394.272 4.31166 389.401 15.2041 382.955Z" fill="#FCFFAC"/>
<path opacity="0.25" d="M114.201 411.657C102.791 408.85 87.4561 407.808 78.3197 407.416C99.202 406.527 152.482 402.195 117.23 381.324C80.2925 359.46 69.463 379.203 65.4754 395.609C61.4878 379.203 50.6584 359.46 13.7207 381.324C-21.5309 402.195 31.7488 406.527 52.6312 407.416C32.0636 408.29 -19.9149 412.511 12.1747 432.569C16.8338 432.877 21.57 433.031 26.3761 433.031C38.6467 433.031 50.4835 432.002 61.6208 430.099C63.3767 426.634 64.5939 422.848 65.4754 419.223C66.2449 422.386 67.2663 425.669 68.6795 428.755C86.2249 425.074 101.776 419.167 114.201 411.657Z" fill="#FFFFEB"/>
<path d="M-49.6326 410.677C-49.6326 374.486 3.56323 345.14 69.1765 345.14C109.493 345.14 145.123 356.219 166.6 373.156C145.528 354.848 108.444 342.691 66.2173 342.691C0.603996 342.691 -52.5918 372.03 -52.5918 408.227C-52.5918 422.183 -44.6866 435.117 -31.2057 445.748C-42.8747 435.607 -49.6326 423.583 -49.6326 410.677Z" fill="#CF7310"/>
<path d="M-35.3192 427.95C-35.3192 459.515 -1.71152 486.754 46.8461 499.373C53.1982 499.849 59.6623 500.094 66.2244 500.094C153.748 500.094 224.699 456.407 224.699 408.129C224.699 396.035 220.25 384.522 212.198 374.059C186.097 358.669 148.949 349.052 107.73 349.052C28.7201 349.045 -35.3192 384.368 -35.3192 427.95Z" fill="#342D3F"/>
<path d="M163.381 336.091C135.461 311.175 85.4836 294.567 28.4751 294.567C-28.5334 294.567 -78.5112 311.168 -106.431 336.091H-130C-130 361.776 -127.461 370.511 -127.041 381.982C-125.278 430.225 -59.0489 469.397 28.4751 469.397C115.999 469.397 183.515 430.225 185.467 381.982C185.936 370.483 186.943 363.736 186.943 335.979L163.381 336.091Z" fill="#C6640C"/>
<path d="M91.8499 391.535C90.01 424.472 91.8499 461.985 91.8499 461.985C125.108 453.755 151.944 439.204 168.23 421.049C186.95 395.161 184.012 368.25 184.012 342.915C184.012 342.922 93.5709 360.727 91.8499 391.535Z" fill="#A3490A"/>
<path d="M3.56328 468.312L0.177353 422.596L-16.3047 368.782L-114.714 350.025L-111.37 419.67C-103.577 428.902 -93.1112 437.237 -80.4628 444.327L-79.9871 383.143L-37.166 404.525L-34.5566 420.027L-35.4171 461.796C-23.2515 464.875 -10.1974 467.094 3.56328 468.312Z" fill="#DD8D19"/>
<path d="M186.95 335.979C186.95 384.256 115.999 427.943 28.4751 427.943C-59.0489 427.943 -130 384.368 -130 336.091C-130 287.813 -59.0489 248.676 28.4751 248.676C115.999 248.676 186.95 287.708 186.95 335.979Z" fill="url(#paint5_radial_1_628)"/>
<path opacity="0.7" d="M99.7131 302.951L165.732 380.953C169.664 376.943 172.336 373.779 175.848 368.922L70.093 251.734C62.8454 250.649 55.388 249.837 47.7626 249.327L99.7131 302.951Z" fill="#FCFFAC"/>
<path d="M31.4414 404.532C96.6985 404.532 149.6 375.353 149.6 339.359C149.6 303.365 96.6985 274.186 31.4414 274.186C-33.8157 274.186 -86.7171 303.365 -86.7171 339.359C-86.7171 375.353 -33.8157 404.532 31.4414 404.532Z" fill="#FCFFAC"/>
<path d="M28.4822 401.628C94.0986 401.628 147.291 372.286 147.291 336.091C147.291 299.896 94.0986 270.554 28.4822 270.554C-37.1343 270.554 -90.3269 299.896 -90.3269 336.091C-90.3269 372.286 -37.1343 401.628 28.4822 401.628Z" fill="#FBAA12"/>
<path opacity="0.3" d="M125.723 298.43C133.839 307.298 138.414 317.32 138.414 327.93C138.414 364.121 85.218 393.467 19.6047 393.467C-20.6 393.467 -56.1385 382.451 -77.6365 365.598C-58.0693 386.972 -17.8927 401.634 28.4823 401.634C94.0956 401.634 147.291 372.296 147.291 336.098C147.291 322.072 139.309 309.082 125.723 298.43Z" fill="#EA831C"/>
<path opacity="0.25" d="M-125.103 314.458C-110.251 341.333 -64.9464 360.888 -11.3589 360.888C54.3034 360.888 107.534 331.528 107.534 295.309C107.534 279.387 97.2434 264.787 80.1317 253.428C63.9435 250.349 46.5661 248.676 28.475 248.676C-45.5052 248.683 -107.649 276.643 -125.103 314.458Z" fill="#FFFFEB"/>
<path d="M42.0604 336.91C62.9428 337.798 116.223 342.131 80.9709 363.001C44.0333 384.865 33.2038 365.122 29.2162 348.717C25.2286 365.122 14.3992 384.865 -22.5385 363.001C-57.7901 342.131 -4.51039 337.798 16.372 336.91C-4.51039 336.021 -57.7901 331.688 -22.5385 310.818C14.3992 288.954 23.7455 310.671 27.7331 327.076C31.7207 310.671 44.0263 288.947 80.9639 310.818C116.223 331.688 62.9498 336.021 42.0604 336.91Z" fill="#C6640C"/>
<path d="M40.5846 335.279C61.467 336.168 114.747 340.5 79.4951 361.371C42.5574 383.235 31.7279 363.491 27.7404 347.086C23.7528 363.491 12.9233 383.235 -24.0143 361.371C-59.266 340.5 -5.98622 336.168 14.8961 335.279C-5.98622 334.39 -59.266 330.058 -24.0143 309.188C12.9233 287.323 23.7528 307.067 27.7404 323.472C31.7279 307.067 42.5574 287.323 79.4951 309.188C114.747 330.051 61.467 334.39 40.5846 335.279Z" fill="#FCE13C"/>
<path d="M2.80058 336.028C-17.8439 337.743 -45.4212 342.432 -32.3881 355.254C-43.6583 341.004 7.8935 336.483 2.80058 336.028Z" fill="#FCFFAC"/>
<path d="M29.2234 325.096C33.211 308.691 44.0404 288.947 80.9781 310.811C84.7278 313.03 87.4631 315.059 89.359 316.921C87.5471 314.633 84.378 312.064 79.502 309.181C44.0124 288.17 32.6303 305.569 28.251 321.519C28.6078 322.723 28.9296 323.92 29.2234 325.096Z" fill="#FCFFAC"/>
<path d="M54.1636 336.154C49.6304 336.531 82.3076 339.478 90.3737 346.379C86.3232 340.276 68.8267 337.455 54.1636 336.154Z" fill="#FCFFAC"/>
<path d="M-22.5311 310.819C0.0792122 297.437 12.9025 299.642 20.3669 307.13C13.1613 298.389 0.170158 294.875 -24.0142 309.188C-36.5996 316.642 -37.8938 321.982 -33.4165 325.81C-35.858 322.129 -33.4235 317.265 -22.5311 310.819Z" fill="#FCFFAC"/>
<path opacity="0.25" d="M76.4659 339.52C65.0558 336.714 49.7211 335.671 40.5846 335.279C61.467 334.39 114.747 330.058 79.4951 309.188C42.5574 287.323 31.7279 307.067 27.7404 323.472C23.7528 307.067 12.9233 287.323 -24.0143 309.188C-59.266 330.058 -5.98622 334.39 14.8961 335.279C-5.67141 336.154 -57.65 340.374 -25.5604 360.433C-20.9012 360.741 -16.165 360.895 -11.3589 360.895C0.911636 360.895 12.7485 359.866 23.8857 357.962C25.6417 354.498 26.8589 350.712 27.7404 347.086C28.5099 350.25 29.5313 353.532 30.9444 356.619C48.4828 352.937 64.0344 347.023 76.4659 339.52Z" fill="#FFFFEB"/>
<path d="M-87.3677 338.54C-87.3677 302.35 -34.1719 273.004 31.4414 273.004C71.758 273.004 107.387 284.083 128.864 301.02C107.793 282.711 70.7086 270.554 28.4822 270.554C-37.1311 270.554 -90.3269 299.893 -90.3269 336.091C-90.3269 350.046 -82.4217 362.98 -68.9409 373.611C-80.6098 363.47 -87.3677 351.439 -87.3677 338.54Z" fill="#CF7310"/>
<path d="M183.054 355.568C174.98 324.081 126.745 298.64 67.6304 296.687C2.05207 294.525 -52.0812 322.1 -53.2705 358.277C-54.3898 392.2 -8.56052 421.637 51.2253 426.956C116.377 421.217 168.726 391.381 183.054 355.568Z" fill="#342D3F"/>
<path d="M181.487 262.456C154.406 236.631 105.002 218.392 48.0213 216.516C-8.95222 214.64 -59.4547 229.59 -88.1723 253.575L-111.727 252.798C-112.574 278.47 -110.321 287.281 -110.279 298.759C-110.104 347.037 -45.2043 388.365 42.2708 391.248C129.746 394.132 198.514 357.199 202.054 309.054C202.901 297.576 204.132 290.864 205.048 263.128L181.487 262.456Z" fill="#C6640C"/>
<path d="M108.164 315.514C105.24 348.374 105.848 385.929 105.848 385.929C139.358 378.797 166.663 365.136 183.536 347.534C203.103 322.275 201.047 295.288 201.879 269.959C201.872 269.959 110.899 284.775 108.164 315.514Z" fill="#A3490A"/>
<path d="M17.4006 389.338L15.5188 343.538L0.813637 289.213L-96.9242 267.23L-95.8748 336.945C-88.3894 346.428 -78.2035 355.1 -65.793 362.609L-63.3025 301.475L-21.209 324.256L-19.1103 339.835L-21.3489 381.555C-9.28824 385.027 3.68891 387.665 17.4006 389.338Z" fill="#DD8D19"/>
<path d="M205.048 263.121C203.46 311.371 131.11 352.699 43.6349 349.815C-43.8401 346.932 -113.315 301.041 -111.727 252.791C-110.139 204.541 -37.9357 167.763 49.5324 170.646C137.007 173.53 206.636 214.872 205.048 263.121Z" fill="url(#paint6_radial_1_628)"/>
<path opacity="0.7" d="M-41.1677 262.057L-76.1885 199.978C-87.4587 207.347 -96.4482 215.851 -102.57 225.18L-19.103 339.835C-8.47647 342.802 1.68135 345.301 13.5322 347.072L-41.1677 262.057Z" fill="#FCFFAC"/>
<path d="M3.71728 210.532L10.5941 206.389L-10.3022 175.083C-14.5067 175.881 -18.6202 176.777 -22.6428 177.764L3.71728 210.532Z" fill="#FCFFAC"/>
<path opacity="0.7" d="M118.937 227.231L182.354 307.368C186.418 303.49 189.189 300.411 192.862 295.679L91.0242 175.076C83.8116 173.753 76.3891 172.697 68.7917 171.941L118.937 227.231Z" fill="#FCFFAC"/>
<path d="M167.635 265.224C168.819 229.248 116.904 198.342 51.6793 196.195C-13.5452 194.047 -67.3797 221.47 -68.5634 257.446C-69.7471 293.422 -17.8317 324.327 47.3928 326.475C112.617 328.623 166.452 301.2 167.635 265.224Z" fill="#FCFFAC"/>
<path d="M165.437 261.883C166.627 225.706 114.426 194.628 48.8425 192.468C-16.7412 190.308 -70.8722 217.885 -72.0625 254.062C-73.2528 290.238 -21.0516 321.316 44.532 323.476C110.116 325.636 164.247 298.059 165.437 261.883Z" fill="#FBAA12"/>
<path opacity="0.3" d="M145.081 223.571C152.902 232.697 157.141 242.867 156.792 253.477C155.602 289.654 101.469 317.222 35.8907 315.066C-4.293 313.744 -39.4467 301.566 -60.3781 284.006C-41.5245 306.017 -1.85849 321.988 44.4955 323.514C110.074 325.677 164.207 298.101 165.396 261.924C165.858 247.913 158.317 234.671 145.081 223.571Z" fill="#EA831C"/>
<path opacity="0.25" d="M-106.131 231.332C-92.1741 258.684 -47.5341 279.722 6.02551 281.486C71.6528 283.648 125.821 256.059 127.01 219.854C127.535 203.939 117.734 189.011 101 177.092C84.9168 173.48 67.6092 171.241 49.5322 170.646C-24.4131 168.21 -87.4379 194.113 -106.131 231.332Z" fill="#FFFFEB"/>
<path d="M-69.2137 256.64C-68.0244 220.463 -13.8912 192.895 51.6871 195.051C91.9827 196.381 127.227 208.622 148.138 226.259C127.682 207.264 91.0173 193.896 48.8119 192.503C-16.7665 190.341 -70.8997 217.916 -72.089 254.093C-72.5507 268.041 -65.0722 281.227 -51.9482 292.299C-63.2813 281.78 -69.6335 269.539 -69.2137 256.64Z" fill="#CF7310"/>
</g>
<defs>
<radialGradient id="paint0_radial_1_628" cx="0" cy="0" r="1" gradientUnits="userSpaceOnUse" gradientTransform="translate(-33.6203 211.398) scale(95.0635 95.1048)">
<stop stop-color="#FBC01E"/>
<stop offset="0.4609" stop-color="#FDC822"/>
<stop offset="1" stop-color="#FCE13C"/>
</radialGradient>
<radialGradient id="paint1_radial_1_628" cx="0" cy="0" r="1" gradientUnits="userSpaceOnUse" gradientTransform="translate(-22.6801 167.162) scale(95.0635 95.1048)">
<stop stop-color="#FBC01E"/>
<stop offset="0.4609" stop-color="#FDC822"/>
<stop offset="1" stop-color="#FCE13C"/>
</radialGradient>
<radialGradient id="paint2_radial_1_628" cx="0" cy="0" r="1" gradientUnits="userSpaceOnUse" gradientTransform="translate(-44.9648 110.371) scale(95.0635 95.1048)">
<stop stop-color="#FBC01E"/>
<stop offset="0.4609" stop-color="#FDC822"/>
<stop offset="1" stop-color="#FCE13C"/>
</radialGradient>
<radialGradient id="paint3_radial_1_628" cx="0" cy="0" r="1" gradientUnits="userSpaceOnUse" gradientTransform="translate(-4.03083 66.1978) scale(95.0635 95.1048)">
<stop stop-color="#FBC01E"/>
<stop offset="0.4609" stop-color="#FDC822"/>
<stop offset="1" stop-color="#FCE13C"/>
</radialGradient>
<radialGradient id="paint4_radial_1_628" cx="0" cy="0" r="1" gradientUnits="userSpaceOnUse" gradientTransform="translate(66.2185 410.452) scale(128.726 128.781)">
<stop stop-color="#FBC01E"/>
<stop offset="0.4609" stop-color="#FDC822"/>
<stop offset="1" stop-color="#FCE13C"/>
</radialGradient>
<radialGradient id="paint5_radial_1_628" cx="0" cy="0" r="1" gradientUnits="userSpaceOnUse" gradientTransform="translate(28.4802 338.314) scale(128.726 128.781)">
<stop stop-color="#FBC01E"/>
<stop offset="0.4609" stop-color="#FDC822"/>
<stop offset="1" stop-color="#FCE13C"/>
</radialGradient>
<radialGradient id="paint6_radial_1_628" cx="0" cy="0" r="1" gradientUnits="userSpaceOnUse" gradientTransform="translate(46.5823 260.231) rotate(1.88611) scale(128.726 128.781)">
<stop stop-color="#FBC01E"/>
<stop offset="0.4609" stop-color="#FDC822"/>
<stop offset="1" stop-color="#FCE13C"/>
</radialGradient>
</defs>
</svg>
