<svg width="174" height="411" viewBox="0 0 174 411" fill="none" xmlns="http://www.w3.org/2000/svg">
<g opacity="0.3">
<path d="M468.591 323.466C466.595 373.062 377.107 414.403 268.95 410.041C160.792 405.679 74.9206 357.376 76.9167 307.78C78.9128 258.185 168.213 221.519 276.37 225.881C384.528 230.243 470.587 273.871 468.591 323.466Z" fill="#342D3F"/>
<path d="M370.5 223.344C339.259 195.464 283.337 176.881 219.548 176.881C155.759 176.881 99.8364 195.457 68.5954 223.344H42.2234C42.2234 252.084 45.0649 261.858 45.5346 274.693C47.5072 328.674 121.613 372.505 219.548 372.505C317.482 372.505 393.029 328.674 395.213 274.693C395.737 261.826 396.872 254.277 396.872 223.218L370.5 223.344Z" fill="#C6640C"/>
<path d="M191.673 371.284L187.884 320.13L169.442 259.916L59.3274 238.928L63.0691 316.857C71.7893 327.186 83.4998 336.513 97.6526 344.446L98.1848 275.985L146.099 299.91L149.019 317.256L148.056 363.993C161.669 367.446 176.283 369.921 191.673 371.284Z" fill="#DD8D19"/>
<path d="M396.871 223.218C396.871 277.238 317.481 326.121 219.547 326.121C121.613 326.121 42.2306 277.364 42.2306 223.344C42.2306 169.324 121.621 125.531 219.555 125.531C317.489 125.531 396.871 169.199 396.871 223.218Z" fill="url(#paint0_radial_1_882)"/>
<path opacity="0.7" d="M121.488 231.105L80.0393 162.965C67.7026 171.627 57.9648 181.463 51.4598 192.121L149.026 317.264C161.018 320.193 172.471 322.613 185.786 324.156L121.488 231.105Z" fill="#FCFFAC"/>
<path d="M169.786 171.822L177.324 166.936L152.799 132.697C148.126 133.747 143.562 134.898 139.101 136.151L169.786 171.822Z" fill="#FCFFAC"/>
<path d="M222.866 299.918C295.885 299.918 355.079 267.268 355.079 226.993C355.079 186.718 295.885 154.068 222.866 154.068C149.847 154.068 90.6537 186.718 90.6537 226.993C90.6537 267.268 149.847 299.918 222.866 299.918Z" fill="#FCFFAC"/>
<path d="M219.556 296.676C292.977 296.676 352.496 263.844 352.496 223.344C352.496 182.844 292.977 150.012 219.556 150.012C146.135 150.012 86.6152 182.844 86.6152 223.344C86.6152 263.844 146.135 296.676 219.556 296.676Z" fill="#FBAA12"/>
<path opacity="0.3" d="M328.362 181.204C337.443 191.126 342.562 202.34 342.562 214.213C342.562 254.708 283.039 287.544 209.622 287.544C164.635 287.544 124.869 275.218 100.814 256.36C122.709 280.277 167.664 296.683 219.555 296.683C292.973 296.683 352.496 263.855 352.496 223.352C352.496 207.658 343.564 193.123 328.362 181.204Z" fill="#EA831C"/>
<path opacity="0.25" d="M47.7102 199.137C64.3287 229.209 115.022 251.09 174.983 251.09C248.455 251.09 308.018 218.238 308.018 177.711C308.018 159.895 296.503 143.559 277.356 130.849C259.242 127.403 239.798 125.531 219.555 125.531C136.768 125.531 67.2407 156.825 47.7102 199.137Z" fill="#FFFFEB"/>
<path d="M234.749 224.26C258.115 225.254 317.732 230.102 278.288 253.455C236.957 277.92 224.839 255.828 220.377 237.471C215.915 255.828 203.798 277.92 162.467 253.455C123.022 230.102 182.639 225.254 206.005 224.26C182.639 223.265 123.022 218.418 162.467 195.065C203.798 170.6 214.256 194.901 218.718 213.257C223.18 194.901 236.949 170.592 278.28 195.065C317.732 218.41 258.123 223.265 234.749 224.26Z" fill="#C6640C"/>
<path d="M233.098 222.428C256.464 223.422 316.081 228.27 276.636 251.623C235.305 276.087 223.188 253.995 218.726 235.639C214.264 253.995 202.146 276.087 160.815 251.623C121.371 228.27 180.988 223.422 204.354 222.428C180.988 221.433 121.371 216.586 160.815 193.233C202.146 168.768 214.264 190.86 218.726 209.216C223.188 190.86 235.305 168.768 276.636 193.233C316.081 216.586 256.464 221.433 233.098 222.428Z" fill="#FCE13C"/>
<path d="M190.82 223.273C167.72 225.192 136.863 230.439 151.446 244.786C138.835 228.833 196.526 223.774 190.82 223.273Z" fill="#FCFFAC"/>
<path d="M162.475 195.065C187.774 180.091 202.123 182.558 210.475 190.938C202.413 181.157 187.876 177.225 160.815 193.24C146.733 201.58 145.285 207.556 150.295 211.839C147.563 207.72 150.287 202.277 162.475 195.065Z" fill="#FCFFAC"/>
<path opacity="0.25" d="M273.247 227.173C260.48 224.033 243.321 222.866 233.098 222.428C256.464 221.433 316.081 216.586 276.636 193.233C235.305 168.768 223.188 190.86 218.726 209.216C214.264 190.86 202.146 168.768 160.815 193.233C121.371 216.586 180.988 221.433 204.354 222.428C181.34 223.407 123.179 228.129 159.085 250.573C164.299 250.918 169.598 251.09 174.976 251.09C188.706 251.09 201.951 249.939 214.413 247.809C216.377 243.932 217.74 239.696 218.726 235.639C219.587 239.179 220.73 242.852 222.311 246.305C241.935 242.186 259.337 235.576 273.247 227.173Z" fill="#FFFFEB"/>
<path d="M89.9264 226.085C89.9264 185.589 149.449 152.753 222.867 152.753C267.979 152.753 307.846 165.15 331.878 184.101C308.3 163.615 266.805 150.012 219.556 150.012C146.138 150.012 86.6152 182.841 86.6152 223.344C86.6152 238.959 95.4607 253.431 110.545 265.327C97.4881 253.98 89.9264 240.518 89.9264 226.085Z" fill="#CF7310"/>
<path d="M105.934 245.404C105.934 280.723 143.539 311.202 197.872 325.322C204.98 325.855 212.213 326.129 219.556 326.129C317.49 326.129 396.88 277.246 396.88 223.226C396.88 209.694 391.901 196.811 382.892 185.104C353.686 167.883 312.12 157.123 265.998 157.123C177.598 157.115 105.934 196.647 105.934 245.404Z" fill="#342D3F"/>
<path d="M328.277 142.627C297.036 114.748 241.114 96.1644 177.324 96.1644C113.535 96.1644 57.613 114.74 26.372 142.627H0C0 171.368 2.84152 181.141 3.31119 193.977C5.28381 247.958 79.3901 291.789 177.324 291.789C275.259 291.789 350.805 247.958 352.989 193.977C353.514 181.11 354.641 173.561 354.641 142.502L328.277 142.627Z" fill="#C6640C"/>
<path d="M149.449 290.567L145.661 239.414L127.218 179.199L17.1039 158.211L20.8456 236.14C29.5658 246.469 41.2763 255.797 55.429 263.73L55.9613 195.269L103.876 219.193L106.795 236.539L105.833 283.276C119.445 286.73 134.052 289.205 149.449 290.567Z" fill="#DD8D19"/>
<path d="M354.649 142.502C354.649 196.522 275.259 245.405 177.324 245.405C79.3901 245.405 0 196.647 0 142.627C0 88.6075 79.3901 44.8151 177.324 44.8151C275.259 44.8151 354.649 88.4822 354.649 142.502Z" fill="url(#paint1_radial_1_882)"/>
<path opacity="0.7" d="M79.2567 150.388L37.8082 82.2485C25.4715 90.9098 15.7337 100.746 9.22876 111.404L106.803 236.555C118.795 239.484 130.247 241.904 143.563 243.447L79.2567 150.388Z" fill="#FCFFAC"/>
<path d="M127.562 91.1052L135.1 86.2185L110.576 51.9803C105.902 53.0297 101.339 54.1808 96.877 55.4338L127.562 91.1052Z" fill="#FCFFAC"/>
<path d="M180.635 219.201C253.654 219.201 312.848 186.552 312.848 146.277C312.848 106.001 253.654 73.352 180.635 73.352C107.616 73.352 48.423 106.001 48.423 146.277C48.423 186.552 107.616 219.201 180.635 219.201Z" fill="#FCFFAC"/>
<path d="M177.324 215.959C250.745 215.959 310.265 183.127 310.265 142.627C310.265 102.127 250.745 69.2955 177.324 69.2955C103.903 69.2955 44.3839 102.127 44.3839 142.627C44.3839 183.127 103.903 215.959 177.324 215.959Z" fill="#FBAA12"/>
<path opacity="0.3" d="M286.132 100.479C295.212 110.402 300.331 121.616 300.331 133.488C300.331 173.984 240.808 206.82 167.391 206.82C122.404 206.82 82.6386 194.494 58.5836 175.636C80.4781 199.553 125.434 215.959 177.324 215.959C250.742 215.959 310.265 183.131 310.265 142.627C310.265 126.941 301.341 112.406 286.132 100.479Z" fill="#EA831C"/>
<path opacity="0.25" d="M5.47949 118.421C22.098 148.493 72.7912 170.374 132.753 170.374C206.225 170.374 265.787 137.521 265.787 96.9947C265.787 79.1786 254.272 62.8426 235.125 50.1325C217.012 46.6867 197.567 44.8151 177.324 44.8151C94.5448 44.8151 25.01 76.1087 5.47949 118.421Z" fill="#FFFFEB"/>
<path d="M192.527 143.536C215.893 144.531 275.51 149.378 236.065 172.731C194.734 197.196 182.617 175.104 178.155 156.747C173.693 175.104 161.575 197.196 120.244 172.731C80.7998 149.378 140.417 144.531 163.783 143.536C140.417 142.541 80.7998 137.694 120.244 114.341C161.575 89.8763 172.033 114.177 176.495 132.533C180.957 114.177 194.726 89.8684 236.057 114.341C275.51 137.694 215.893 142.541 192.527 143.536Z" fill="#C6640C"/>
<path d="M190.867 141.711C214.233 142.706 273.85 147.553 234.405 170.906C193.074 195.371 180.957 173.279 176.495 154.923C172.033 173.279 159.916 195.371 118.585 170.906C79.14 147.553 138.757 142.706 162.123 141.711C138.757 140.717 79.14 135.869 118.585 112.516C159.916 88.0516 172.033 110.144 176.495 128.5C180.957 110.144 193.074 88.0516 234.405 112.516C273.85 135.869 214.241 140.717 190.867 141.711Z" fill="#FCE13C"/>
<path d="M148.589 142.557C125.489 144.475 94.6316 149.722 109.215 164.069C96.612 148.117 154.295 143.058 148.589 142.557Z" fill="#FCFFAC"/>
<path d="M120.244 114.341C145.544 99.3677 159.892 101.835 168.244 110.214C160.182 100.433 145.645 96.5014 118.584 112.516C104.502 120.857 103.054 126.832 108.064 131.116C105.34 127.004 108.064 121.554 120.244 114.341Z" fill="#FCFFAC"/>
<path opacity="0.25" d="M231.016 146.457C218.249 143.317 201.09 142.15 190.867 141.711C214.233 140.717 273.85 135.869 234.405 112.516C193.074 88.0516 180.957 110.144 176.495 128.5C172.033 110.144 159.916 88.0516 118.585 112.516C79.14 135.869 138.757 140.717 162.123 141.711C139.109 142.69 80.9483 147.412 116.855 169.857C122.068 170.201 127.367 170.374 132.745 170.374C146.475 170.374 159.72 169.223 172.182 167.092C174.147 163.216 175.509 158.979 176.495 154.923C177.356 158.462 178.499 162.135 180.08 165.589C199.712 161.47 217.114 154.86 231.016 146.457Z" fill="#FFFFEB"/>
<path d="M47.6951 145.368C47.6951 104.873 107.218 72.0364 180.636 72.0364C225.747 72.0364 265.615 84.4333 289.646 103.385C266.069 82.8984 224.573 69.2955 177.324 69.2955C103.907 69.2955 44.3839 102.124 44.3839 142.627C44.3839 158.243 53.2294 172.715 68.3136 184.611C55.2568 173.263 47.6951 159.801 47.6951 145.368Z" fill="#CF7310"/>
<path d="M350.289 164.414C341.255 129.181 287.282 100.714 221.137 98.5293C147.759 96.1095 87.1868 126.965 85.8561 167.444C84.6036 205.402 135.884 238.341 202.781 244.292C275.682 237.879 334.257 204.486 350.289 164.414Z" fill="#342D3F"/>
<path d="M398.767 86.9077C368.465 58.0104 313.185 37.6022 249.427 35.5034C185.677 33.4047 129.167 50.1322 97.0341 76.9699L70.6778 76.1006C69.7306 104.826 72.2512 114.685 72.2981 127.528C72.4938 181.548 145.113 227.792 242.992 231.018C340.872 234.245 417.82 192.919 421.78 139.048C422.728 126.205 424.105 118.695 425.131 87.6596L398.767 86.9077Z" fill="#C6640C"/>
<path d="M215.172 228.88L213.066 177.633L196.612 116.846L87.2491 92.2485L88.4233 170.256C96.7991 180.867 108.196 190.57 122.083 198.973L124.87 130.567L171.97 156.057L174.318 173.49L171.813 220.172C185.301 224.056 199.829 227.009 215.172 228.88Z" fill="#DD8D19"/>
<path d="M425.13 87.6518C423.353 141.64 342.397 187.884 244.518 184.657C146.639 181.431 68.9002 130.081 70.6771 76.0928C72.454 22.1042 153.245 -19.049 251.117 -15.8225C348.996 -12.5961 426.907 33.6631 425.13 87.6518Z" fill="url(#paint2_radial_1_882)"/>
<path opacity="0.7" d="M149.629 86.4611L110.443 16.9979C97.8322 25.2442 87.7734 34.7592 80.9241 45.1983L174.318 173.49C186.209 176.81 197.575 179.606 210.835 181.587L149.629 86.4611Z" fill="#FCFFAC"/>
<path d="M199.853 28.8075L207.548 24.1714L184.166 -10.8578C179.461 -9.96503 174.858 -8.96261 170.357 -7.85841L199.853 28.8075Z" fill="#FCFFAC"/>
<path d="M383.241 90.0131C384.565 49.7581 326.475 15.1766 253.493 12.7733C180.51 10.3699 120.273 41.0547 118.948 81.3097C117.624 121.565 175.714 156.146 248.696 158.55C321.679 160.953 381.916 130.268 383.241 90.0131Z" fill="#FCFFAC"/>
<path d="M380.78 86.2818C382.111 45.802 323.701 11.0276 250.317 8.61098C176.933 6.19438 116.364 37.0507 115.032 77.5305C113.7 118.01 172.11 152.785 245.494 155.201C318.878 157.618 379.448 126.762 380.78 86.2818Z" fill="#FBAA12"/>
<path opacity="0.3" d="M358.037 43.3974C366.789 53.6094 371.533 64.9882 371.141 76.8603C369.811 117.34 309.239 148.187 235.86 145.775C190.897 144.295 151.562 130.669 128.141 111.02C149.237 135.65 193.621 153.52 245.489 155.228C318.867 157.647 379.439 126.792 380.77 86.3127C381.286 70.6345 372.84 55.8178 358.037 43.3974Z" fill="#EA831C"/>
<path opacity="0.25" d="M76.9393 52.0823C92.5559 82.6868 142.505 106.228 202.435 108.201C275.869 110.621 336.48 79.7501 337.81 39.239C338.397 21.4308 327.431 4.72671 308.706 -8.60991C290.71 -12.6508 271.344 -15.1568 251.117 -15.8225C168.376 -18.5478 97.8554 10.4357 76.9393 52.0823Z" fill="#FFFFEB"/>
<path d="M118.255 80.4C119.586 39.9203 180.158 9.07296 253.536 11.485C298.624 12.9729 338.061 26.6698 361.458 46.4045C338.57 25.1505 297.544 10.1928 250.319 8.63443C176.94 6.21457 116.368 37.0697 115.038 77.5494C114.521 93.1571 122.889 107.911 137.574 120.3C124.893 108.53 117.777 94.833 118.255 80.4Z" fill="#CF7310"/>
</g>
<defs>
<radialGradient id="paint0_radial_1_882" cx="0" cy="0" r="1" gradientUnits="userSpaceOnUse" gradientTransform="translate(219.554 225.828) scale(144.036 144.099)">
<stop stop-color="#FBC01E"/>
<stop offset="0.4609" stop-color="#FDC822"/>
<stop offset="1" stop-color="#FCE13C"/>
</radialGradient>
<radialGradient id="paint1_radial_1_882" cx="0" cy="0" r="1" gradientUnits="userSpaceOnUse" gradientTransform="translate(177.328 145.111) scale(144.036 144.099)">
<stop stop-color="#FBC01E"/>
<stop offset="0.4609" stop-color="#FDC822"/>
<stop offset="1" stop-color="#FCE13C"/>
</radialGradient>
<radialGradient id="paint2_radial_1_882" cx="0" cy="0" r="1" gradientUnits="userSpaceOnUse" gradientTransform="translate(247.818 84.4181) rotate(1.88611) scale(144.036 144.099)">
<stop stop-color="#FBC01E"/>
<stop offset="0.4609" stop-color="#FDC822"/>
<stop offset="1" stop-color="#FCE13C"/>
</radialGradient>
</defs>
</svg>
