<svg width="556" height="366" viewBox="0 0 556 366" fill="none" xmlns="http://www.w3.org/2000/svg">
<g opacity="0.3">
<path d="M-459.655 132.561C-434.329 126.433 -365.639 109.814 -315.93 151.169C-247.308 208.242 -283.881 242.934 -305.367 248.133L-306.72 248.46C-328.206 253.658 -376.611 239.552 -341.649 157.391C-316.317 97.8817 -247.626 81.2627 -222.326 75.1415L-218.905 74.3139C-193.579 68.1867 -124.888 51.5677 -75.1798 92.9222C-6.55777 149.995 -43.1304 184.688 -64.6163 189.886L-65.97 190.213C-87.4559 195.412 -135.861 181.305 -100.899 99.1446C-75.5669 39.6349 -6.87608 23.016 18.4246 16.8948L21.5502 16.1386C46.8755 10.0114 115.566 -6.60758 165.275 34.7469C233.897 91.8201 197.324 126.512 175.839 131.71L174.485 132.038C152.999 137.236 104.594 123.13 139.556 40.9693C164.888 -18.5404 233.579 -35.1593 258.879 -41.2805L262.3 -42.1082C287.626 -48.2353 356.317 -64.8543 406.025 -23.4999C474.647 33.5734 438.075 68.2655 416.589 73.4637L415.235 73.7912C393.749 78.9895 345.344 64.8828 380.306 -17.2775C405.638 -76.7871 474.329 -93.4061 499.63 -99.5273" stroke="white" stroke-width="2" stroke-miterlimit="10"/>
<path d="M174.035 132.224L169.425 169.057" stroke="white" stroke-width="2" stroke-miterlimit="10"/>
<path d="M194.337 197.94C192.383 213.444 178.217 224.453 162.712 222.499C147.182 220.551 136.199 206.378 138.153 190.873C140.101 175.344 154.243 164.341 169.772 166.29C185.283 168.268 196.286 182.41 194.337 197.94Z" fill="#FF5287"/>
<path d="M169.778 166.315L162.718 222.524C147.188 220.576 136.204 206.403 138.159 190.899C140.107 175.369 154.248 164.366 169.778 166.315Z" fill="#FF2E60"/>
<path d="M183.178 158.383L181.654 170.605L157.204 167.533L158.727 155.311C159.087 152.488 161.669 150.457 164.516 150.81L178.702 152.588C181.525 152.947 183.538 155.561 183.178 158.383Z" fill="white"/>
<path d="M169.426 169.057L157.204 167.533L158.727 155.311C159.087 152.488 161.669 150.457 164.516 150.81L171.609 151.699L169.844 165.83L169.426 169.057Z" fill="#8AF3FF"/>
<path d="M176.872 178.301C183.141 182.568 187.12 189.864 186.825 198.012" stroke="white" stroke-width="2" stroke-miterlimit="10"/>
<path d="M415.727 72.9171L432.752 105.922" stroke="white" stroke-width="2" stroke-miterlimit="10"/>
<path d="M469.645 115.624C476.811 129.521 471.356 146.602 457.458 153.768C443.561 160.934 426.48 155.48 419.314 141.582C412.148 127.685 417.578 110.609 431.5 103.437C445.397 96.2714 462.479 101.726 469.645 115.624Z" fill="#00AB91"/>
<path d="M431.475 103.444L457.434 153.775C443.536 160.941 426.455 155.486 419.289 141.589C412.123 127.691 417.578 110.61 431.475 103.444Z" fill="#008974"/>
<path d="M438.062 89.3194L443.709 100.276L421.796 111.569L416.149 100.613C414.835 98.091 415.824 94.9602 418.37 93.6407L431.059 87.0797C433.636 85.7789 436.767 86.7669 438.062 89.3194Z" fill="white"/>
<path d="M432.776 105.917L421.82 111.564L416.173 100.608C414.859 98.0857 415.847 94.9549 418.394 93.6354L424.738 90.3549L431.263 103.001L432.776 105.917Z" fill="#8AF3FF"/>
<path d="M444.125 109.32C451.704 109.31 459.125 113.063 463.471 119.932" stroke="white" stroke-width="2" stroke-miterlimit="10"/>
<path d="M302.7 -18.0155L301.671 -5.57432L276.771 -7.59994L277.799 -20.0411C278.042 -22.9135 280.564 -25.0869 283.461 -24.8499L297.891 -23.6777C300.763 -23.4348 302.912 -20.9065 302.7 -18.0155Z" fill="white"/>
<path d="M317.189 88.3936C315.578 108.01 298.394 122.588 278.759 121.008C278.385 120.968 278.01 120.929 277.636 120.889C259.239 118.827 245.353 102.673 246.034 84.1677C246.446 73.5951 251.369 64.328 258.829 58.1203C261.493 55.8866 261.817 51.9523 259.54 49.3249C253.501 42.3451 250.182 33.04 250.994 23.1521C252.605 3.53588 269.808 -11.0731 289.424 -9.4623C289.798 -9.42261 290.173 -9.38294 290.547 -9.34324C308.925 -7.25052 322.836 8.89701 322.124 27.3839C321.718 37.9811 316.79 47.2236 309.33 53.4313C306.641 55.6709 306.341 59.5992 308.618 62.2267C314.676 69.1759 318.02 78.4751 317.189 88.3936Z" fill="#FFB600"/>
<path d="M289.448 -9.46826L278.759 121.008C278.385 120.968 278.01 120.929 277.636 120.889C259.239 118.827 245.353 102.673 246.034 84.1677C246.446 73.5951 251.369 64.328 258.829 58.1203C261.493 55.8866 261.817 51.9523 259.54 49.3249C253.501 42.3451 250.182 33.04 250.994 23.1521C252.629 3.52992 269.832 -11.0791 289.448 -9.46826Z" fill="#FC8035"/>
<path d="M309.62 32.2329C311.021 23.2707 307.93 13.8322 300.596 7.42603" stroke="white" stroke-width="2" stroke-miterlimit="10"/>
<path d="M19.0878 15.2229L29.7781 58.332" stroke="white" stroke-width="2" stroke-miterlimit="10"/>
<path d="M37.8111 38.8809L40.8205 50.9965L16.5892 57.0153L13.5798 44.8997C12.8764 42.0999 14.5809 39.2386 17.4112 38.5539L31.4712 35.0741C34.265 34.3461 37.1263 36.0506 37.8111 38.8809Z" fill="white"/>
<path d="M28.699 53.9815L16.5834 56.9909L13.574 44.8753C12.8706 42.0755 14.5751 39.2142 17.4054 38.5294L24.4324 36.7773L27.9003 50.788L28.699 53.9815Z" fill="#8AF3FF"/>
<path d="M85.5246 135.088C90.2496 154.188 78.618 173.519 59.5186 178.244C59.1494 178.333 58.7803 178.422 58.4111 178.512C40.3129 182.422 21.9955 171.535 16.7627 153.782C13.7569 143.62 15.4812 133.303 20.5865 125.008C22.3963 122.043 21.4427 118.209 18.4592 116.43C10.5231 111.733 4.40358 103.991 1.98964 94.3364C-2.73544 75.2371 8.89624 55.9058 28.0143 51.1502C28.3834 51.0609 28.7526 50.9716 29.1218 50.8822C47.2013 47.0031 65.5374 57.8595 70.7702 75.6116C73.776 85.7742 72.0576 96.1158 66.9709 104.381C65.1366 107.351 66.0901 111.185 69.0983 112.958C77.0156 117.686 83.1352 125.428 85.5246 135.088Z" fill="#00AB91"/>
<path d="M28.0207 51.1752L59.5191 178.244C59.15 178.334 58.7808 178.423 58.4116 178.512C40.3134 182.422 21.996 171.535 16.7632 153.783C13.7574 143.62 15.4818 133.303 20.5871 125.008C22.3968 122.043 21.4433 118.21 18.4597 116.43C10.5236 111.733 4.40411 103.991 1.99016 94.3368C-2.75357 75.268 8.90273 55.9309 28.0207 51.1752Z" fill="#008974"/>
<path d="M60.4359 84.2602C58.9008 75.331 52.955 67.3386 43.9797 63.6223" stroke="white" stroke-width="2" stroke-miterlimit="10"/>
</g>
</svg>
