<svg width="524" height="400" viewBox="0 0 524 400" fill="none" xmlns="http://www.w3.org/2000/svg">
<g opacity="0.3">
<path d="M66.6741 -105.589C91.6983 -98.33 159.573 -78.6402 182.18 -18.059C213.396 65.5584 164.423 77.5063 143.193 71.3475L141.855 70.9595C120.625 64.8007 85.6169 28.517 156.766 -25.4313C208.308 -64.5024 276.182 -44.8126 301.182 -37.5603L304.563 -36.5797C329.587 -29.3203 397.461 -9.63054 420.068 50.9506C451.285 134.568 402.312 146.516 381.081 140.357L379.744 139.969C358.513 133.81 323.506 97.5266 394.655 43.5784C446.197 4.50719 514.071 24.197 539.071 31.4493L542.16 32.3453C567.184 39.6046 635.058 59.2944 657.665 119.876C688.882 203.493 639.909 215.441 618.678 209.282L617.341 208.894C596.11 202.735 561.102 166.452 632.252 112.503C683.794 73.4321 751.668 93.122 776.668 100.374L780.048 101.355C805.072 108.614 872.947 128.304 895.554 188.885C926.77 272.503 877.797 284.451 856.567 278.292L855.229 277.904C833.999 271.745 798.991 235.461 870.141 181.513C921.682 142.442 989.557 162.132 1014.56 169.384" stroke="white" stroke-width="2" stroke-miterlimit="10"/>
<path d="M294.657 -39.058L289.143 5.034" stroke="white" stroke-width="2" stroke-miterlimit="10"/>
<path d="M303.623 -10.2498L302.06 2.13674L277.28 -0.965129L278.843 -13.3517C279.203 -16.2267 281.823 -18.2613 284.698 -17.9019L299.073 -16.1047C301.948 -15.7452 303.983 -13.1249 303.623 -10.2498Z" fill="white"/>
<path d="M289.698 0.580693L277.311 -0.982394L278.874 -13.369C279.234 -16.244 281.854 -18.2786 284.729 -17.9192L291.904 -17.0241L290.121 -2.69754L289.698 0.580693Z" fill="#8AF3FF"/>
<path d="M313.57 96.7C311.118 116.238 293.32 130.058 273.775 127.631C273.397 127.574 273.042 127.524 272.663 127.466C254.376 124.613 241.198 107.872 242.675 89.4221C243.524 78.8587 248.858 69.8335 256.576 63.9517C259.353 61.8308 259.824 57.9336 257.665 55.1979C251.931 47.9714 249.002 38.5266 250.249 28.6848C252.7 9.14709 270.505 -4.69729 290.043 -2.24615C290.422 -2.18897 290.776 -2.13884 291.155 -2.08165C309.436 0.795695 322.62 17.5132 321.119 35.9556C320.27 46.519 314.936 55.5443 307.243 61.4331C304.465 63.554 303.994 67.4512 306.153 70.1868C311.87 77.382 314.799 86.8268 313.57 96.7Z" fill="#FF5287"/>
<path d="M290.05 -2.27018L273.776 127.631C273.397 127.574 273.042 127.524 272.663 127.467C254.376 124.614 241.198 107.872 242.675 89.4224C243.524 78.859 248.858 69.8338 256.576 63.952C259.353 61.8311 259.824 57.9339 257.665 55.1982C251.931 47.9716 249.002 38.5269 250.249 28.6851C252.707 9.12305 270.512 -4.72131 290.05 -2.27018Z" fill="#FF2E60"/>
<path d="M308.411 40.2319C310.199 31.3384 307.522 21.7555 300.446 15.0626" stroke="white" stroke-width="2" stroke-miterlimit="10"/>
<path d="M377.772 140.952L376.157 178.055" stroke="white" stroke-width="2" stroke-miterlimit="10"/>
<path d="M403.36 204.797C402.678 220.419 389.46 232.535 373.839 231.853C358.217 231.171 346.1 217.953 346.783 202.332C347.465 186.711 360.658 174.587 376.304 175.276C391.925 175.958 404.042 189.176 403.36 204.797Z" fill="#FFB600"/>
<path d="M376.28 175.269L373.815 231.847C358.193 231.164 346.076 217.947 346.759 202.325C347.441 186.704 360.659 174.587 376.28 175.269Z" fill="#FC8035"/>
<path d="M389.012 166.281L388.472 178.595L363.844 177.515L364.384 165.201C364.496 162.359 366.909 160.133 369.774 160.252L384.046 160.859C386.929 161.01 389.156 163.423 389.012 166.281Z" fill="white"/>
<path d="M376.189 178.037L363.875 177.497L364.415 165.183C364.527 162.342 366.94 160.115 369.805 160.234L376.941 160.538L376.317 174.779L376.189 178.037Z" fill="#8AF3FF"/>
<path d="M384.341 186.652C390.924 190.407 395.501 197.351 395.861 205.47" stroke="white" stroke-width="2" stroke-miterlimit="10"/>
<path d="M135.559 69.2119L113.242 98.8848" stroke="white" stroke-width="2" stroke-miterlimit="10"/>
<path d="M120.545 136.332C111.148 148.819 93.385 151.339 80.898 141.942C68.3866 132.539 65.8914 114.783 75.2879 102.296C84.6914 89.7844 102.43 87.2579 114.941 96.6614C127.422 106.082 129.948 123.821 120.545 136.332Z" fill="#8AF3FF"/>
<path opacity="0.5" d="M114.91 96.6793L80.867 141.96C68.3556 132.557 65.8604 114.801 75.2569 102.314C84.6604 89.8023 102.399 87.2758 114.91 96.6793Z" fill="#00AB91"/>
<path d="M130.504 96.4563L123.111 106.308L103.415 91.4981L110.808 81.6464C112.521 79.3751 115.772 78.8944 118.067 80.6149L129.497 89.2036C131.744 90.9101 132.218 94.185 130.504 96.4563Z" fill="white"/>
<path d="M113.243 98.8841L103.391 91.4913L110.784 81.6396C112.497 79.3683 115.748 78.8875 118.044 80.6081L123.758 84.9025L115.208 96.2903L113.243 98.8841Z" fill="#8AF3FF"/>
<path d="M115.115 110.606C118.437 117.423 118.267 125.732 113.965 132.657" stroke="white" stroke-width="2" stroke-miterlimit="10"/>
<path d="M544.979 60.1604L541.574 72.1709L517.553 65.3608L520.958 53.3504C521.738 50.5709 524.638 48.934 527.435 49.7453L541.366 53.7076C544.153 54.4632 545.79 57.3637 544.979 60.1604Z" fill="white"/>
<path d="M529.57 68.7418L517.56 65.3367L520.965 53.3263C521.745 50.5468 524.645 48.9099 527.442 49.7212L534.411 51.6902L530.463 65.5732L529.57 68.7418Z" fill="#8AF3FF"/>
<path d="M538.612 167.361C533.228 186.285 513.531 197.287 494.607 191.902C494.242 191.797 493.878 191.691 493.513 191.585C475.863 185.99 465.371 167.444 469.645 149.437C472.083 139.123 478.704 131.025 487.255 126.36C490.298 124.686 491.374 120.885 489.668 117.859C485.113 109.841 483.646 100.082 486.346 90.5033C491.73 71.5792 511.427 60.5772 530.382 65.9442C530.747 66.05 531.112 66.1558 531.476 66.2616C549.095 71.8737 559.618 90.403 555.344 108.41C552.906 118.723 546.278 126.846 537.759 131.493C534.691 133.161 533.615 136.962 535.345 139.995C539.869 148.03 541.336 157.789 538.612 167.361Z" fill="#00AB91"/>
<path d="M530.375 65.9691L494.607 191.903C494.243 191.797 493.878 191.691 493.513 191.586C475.863 185.991 465.371 167.444 469.645 149.437C472.084 139.124 478.704 131.025 487.255 126.361C490.298 124.686 491.375 120.886 489.669 117.86C485.113 109.841 483.647 100.082 486.346 90.5038C491.699 71.597 511.42 60.6021 530.375 65.9691Z" fill="#008974"/>
</g>
</svg>
