<svg width="435" height="647" viewBox="0 0 435 647" fill="none" xmlns="http://www.w3.org/2000/svg">
<g opacity="0.3">
<path d="M291.849 641.595C305.387 651.495 321.129 657.396 337.07 661.353C340.535 662.22 344.039 662.947 347.543 663.66C361.52 666.471 376.425 661.66 389.991 664.835C385.066 659.549 380.089 654.431 375.709 648.6C372.138 643.832 370.001 638.575 366.232 633.988C356.808 622.466 348.008 610.301 337.588 599.716C363.444 626.018 399.587 635.051 435 641.595C412.874 628.87 390.747 616.104 368.607 603.379C355.361 595.773 341.504 587.509 333.752 573.861C350.569 587.872 372.351 584.894 393.415 580.685C359.303 573.218 326.412 559.459 296.746 540.218C315.515 545.028 334.854 547.21 354.153 546.734C337.787 540.498 321.182 534.094 307.139 523.229C295.14 513.972 285.491 501.779 274.633 491.068C255.52 472.247 232.451 457.635 216.789 435.597C204.883 418.846 197.649 398.291 183.022 384.154C171.448 372.884 156.17 366.633 144.423 355.615C135.185 346.959 128.27 335.521 117.718 328.753C70.7971 368.157 18.3149 405.674 -7.70055 462.626C-28.3005 507.694 -66.1025 540.875 -102.803 572.589C-112.306 580.755 -121.81 588.991 -132.23 595.829C-117.629 591.2 -105.736 588.306 -91.4941 582.629C-81.7516 578.783 -71.8366 574.518 -64.2841 566.982C-95.5557 607.994 -134.884 644.196 -177 672.581C-137.897 670.288 -100.626 662.723 -64.085 647.761C-83.3444 669.785 -104.396 690.424 -127.133 708.35C-104.329 708.588 -83.3179 698.967 -64.377 685.585C-45.4627 672.162 -29.296 654.935 -13.2885 637.862C-17.7218 666.932 -35.6008 693.15 -49.4447 718.753C-15.7839 699.946 16.1912 677.965 41.1846 647.664C38.4503 670.078 31.5616 692.507 23.4384 713.44C24.8055 709.958 30.3006 706.043 32.9154 703.54C36.539 700.072 40.2555 696.8 43.9056 693.402C50.3829 687.375 55.4798 678.16 59.6741 670.19C59.3556 684.341 59.0105 698.464 58.6654 712.615C58.5592 717.69 58.4132 722.766 57.5504 727.73C73.3986 698.939 90.3485 670.33 101.325 639.26C110.418 665.883 124.407 688.606 141.57 710.154C145.87 715.523 150.556 720.711 154.511 726.332C157.829 731.086 160.524 736.288 164.081 741C154.75 713.579 153.516 683.194 160.577 655.005C171.103 674.329 184.044 690.004 201.618 702.407C212.634 710.182 224.7 716.222 236.659 722.277C244.224 726.094 251.79 729.87 259.343 733.673C249.109 716.586 242.871 696.814 241.291 676.664C270.001 701.26 305.786 712.055 342.778 713.286C319.961 694.898 302.334 669.701 291.849 641.595Z" fill="#025D62"/>
<path d="M174.872 221.351C191.57 251.065 205.878 282.261 223.771 311.192C241.663 340.123 262.727 366.467 291.105 383.736C274.102 380.687 256.21 374.954 240.734 366.914C260.378 392.657 292.273 411.38 311.32 437.626C296.016 433.767 281.164 422.678 269.138 411.995C273.704 425.447 283.885 435.822 294.132 445.191C310.577 460.208 327.208 475.366 345.552 487.713C307.949 497.557 268.342 493.46 233.593 475.408C237.482 486.762 245.101 501.374 249.932 512.323C235.889 503.877 225.549 494.746 212.913 484.119C213.351 498.829 218.793 516.882 225.682 529.69C194.782 513.316 170.173 492.607 147.49 465.089C145.034 473.646 146.149 482.819 147.29 491.67C149.746 510.659 151.312 530.515 153.768 549.504C143.508 536.332 133.234 523.146 122.974 509.974C113.231 497.473 102.241 488.594 96.3479 473.66C86.8178 511.442 62.6606 542.904 39.4591 573.415C44.8082 544.624 47.6619 511.288 44.6091 482.134C23.4781 513.945 -2.53729 539.66 -34.738 558.551C-24.0664 534.626 -14.4699 509.862 -10.2888 483.784C-28.0218 500.899 -51.0109 510.771 -74.1727 517.595C-97.3344 524.418 -119.593 526.236 -142.556 533.773C-115.864 510.617 -91.1092 483.602 -71.9029 453.301C-79.5749 459.272 -89.5828 460.404 -99.0864 461.341C-115.2 462.935 -127.77 465.145 -143.883 466.739C-104.011 441.975 -67.8812 415.057 -32.9461 383.064C-46.8564 389.469 -60.926 389.916 -76.0575 388.546C-30.9685 363.069 7.07249 323.93 32.3314 277.059C49.6396 244.926 72.35 211.409 89.0875 178.954C92.3793 172.564 95.6843 165.978 100.808 161.112C109.356 153.016 122.655 151.045 132.982 156.372C143.242 161.658 149.547 172.634 155.281 183.038C162.263 195.748 167.771 208.724 174.872 221.351Z" fill="#096969"/>
<path d="M273.213 355.392C258.546 342.122 240.587 333.606 223.81 323.441C207.033 313.275 189.207 300.69 180.699 282.401C184.004 292.622 187.11 302.914 190.07 313.247C168.726 296.775 150.356 275.619 139.154 250.38C137.574 260.447 135.981 270.529 134.442 280.639C131.92 296.719 129.862 315.037 132.477 331.131C122.522 318.868 117.173 303.291 112.05 288.078C108.068 276.304 105.798 264.754 101.83 252.966C92.8303 280.485 82.7958 308.675 73.7833 336.193C75.2566 327.775 74.5664 319.162 73.8496 310.646C72.3497 292.762 73.1594 272.417 71.6861 254.505C60.5101 279.478 39.4854 301.529 18.965 318.715C23.9823 306.186 29.1588 292.538 35.1981 279.87C35.1583 279.94 35.1317 279.982 35.0654 280.009C32.1718 281.506 29.1721 286.204 26.7829 288.553C23.6239 291.657 20.3852 294.678 17.0802 297.614C4.13886 309.08 -9.98381 319.064 -25.0621 327.118C-40.8041 335.536 -57.7142 340.486 -73.9075 347.729C-71.3192 344.765 -68.7044 341.87 -66.1427 338.864C-55.7232 326.671 -45.702 314.114 -36.0656 301.222C-16.5408 275.129 1.35149 247.681 17.1997 218.96C-1.83408 233.852 -23.7348 244.912 -47.2151 248.24C-14.6294 226.329 19.8012 201.942 43.1355 169.432C28.1368 181.374 11.2798 189.4 -7.34245 192.015C19.7879 176.829 41.7285 152.694 58.6917 125.721C75.6548 98.734 87.959 68.8662 99.2412 38.7748C103.993 26.1342 108.599 13.3538 111.001 0C114.85 18.7652 121.169 33.3356 126.159 51.8351C129.186 63.0634 132.411 74.2218 136.911 84.8629C151.484 119.317 177.487 144.123 203.728 169.81C202.626 171.054 200.648 170.537 199.109 169.949C192.671 167.377 185.676 164.86 179.225 162.287C185.743 176.857 194.091 190.518 205.772 200.922C196.003 198.712 189.924 194.406 181.867 188.183C187.561 199.901 195.578 210.094 203.542 220.218C222.204 243.947 243.799 267.215 262.462 290.944C257.67 290.609 253.21 288.204 248.963 285.826C244.437 283.296 239.91 280.779 235.371 278.29C228.429 274.416 222.164 270.893 218.965 263.342C230.805 293.531 250.569 319.386 269.072 345.632C270.877 348.163 272.762 352.26 273.213 355.392Z" fill="#0F8A80"/>
<path d="M35.2775 243.54C35.2377 243.637 35.1978 243.721 35.1448 243.819C33.0874 247.902 30.8177 251.873 28.3223 255.677C24.9642 260.766 21.1548 265.577 18.4205 271.072C26.8755 264.78 34.4014 256.991 39.8833 247.748C43.0688 242.379 45.5376 236.576 47.9666 230.773C49.5594 226.97 51.1389 223.138 52.1477 219.125C53.329 214.399 54.6696 206.219 52.8777 201.087C50.3425 216.231 43.2016 230.34 35.2775 243.54Z" fill="#19807A"/>
<path d="M171.342 226.383C163.458 210.862 155.799 195.089 148.287 179.372C144.849 172.157 141.531 164.886 138.292 157.573C140.11 161.684 140.469 167.823 141.345 172.395C143.229 182.183 144.517 192.167 147.543 201.661C150.862 212.079 156.357 219.378 163.776 226.887C168.993 232.158 174.342 237.36 180.501 241.331C177.249 236.493 173.997 231.627 171.342 226.383Z" fill="#19807A"/>
<path d="M54.6301 257.104C58.9572 253.93 61.9304 249.12 64.5585 244.296C69.8014 234.676 74.0886 224.482 77.3671 213.939C76.3052 222.538 75.2301 231.138 74.1682 239.738C81.5747 225.251 85.9946 209.073 86.9901 192.643C86.8972 194.153 81.0172 199.354 79.8226 200.459C78.7342 201.466 78.2564 202.655 76.6504 202.487C75.5752 202.375 75.2965 200.459 74.155 200.515C70.3058 200.725 69.1775 213.827 68.4608 216.707C65.023 230.565 60.3907 244.114 54.6301 257.104Z" fill="#19807A"/>
<path d="M51.9751 498.801C65.0625 487.755 65.2748 465.13 78.84 454.741C79.6364 457.957 80.4328 461.159 81.2159 464.375C84.9988 462.977 86.8968 458.684 89.0604 455.132C91.2239 451.581 95.1395 448.127 98.8427 449.721C100.86 450.588 102.081 452.685 103.329 454.573C105.426 457.719 107.935 460.558 110.775 462.977C111.253 463.396 111.811 463.816 112.434 463.774C113.417 463.732 114.001 462.641 114.399 461.704C116.908 455.776 119.416 449.861 121.911 443.932C126.756 448.239 132.119 451.874 137.826 454.755C139.14 455.412 140.693 456.027 141.981 455.328C142.883 454.839 143.401 453.818 143.812 452.839C146.693 445.987 147.17 438.031 145.113 430.844C144.848 429.907 144.502 428.942 143.786 428.327C141.144 426.062 138.118 430.368 135.702 432.899C131.203 437.598 123.172 436.087 118.593 431.459C114.027 426.845 112.063 420.119 110.404 413.673C108.731 407.24 107.059 400.487 102.825 395.523C101.378 406.807 99.9179 418.105 98.4711 429.39C98.0463 432.648 96.3606 436.926 93.3078 436.227C93.4671 432.172 89.2329 428.649 85.5297 429.739C82.4769 430.634 80.5921 433.78 79.0126 436.689C77.9773 438.604 76.7031 441.303 74.8183 442.436C71.9911 444.128 69.9337 442.03 67.81 442.841C64.7572 443.988 66.7349 441.639 64.2926 445.232C62.9122 447.288 62.9122 453.384 62.4609 455.831C59.7399 470.346 56.2358 484.692 51.9751 498.801Z" fill="#127370"/>
<path d="M195.67 497.457C186.06 484.635 179.689 469.156 177.366 453.005C185.091 460.989 192.192 469.659 198.577 478.874C199.93 477.881 199.24 475.658 198.417 474.147C189.737 458.067 181.043 441.987 172.362 425.906C168.566 432.436 174.287 441.665 170.729 448.363C166.017 441.679 161.651 434.716 157.762 427.458C154.364 439.847 159.076 450.306 164.571 461.255C172.349 476.734 185.861 484.355 195.67 497.457Z" fill="#127370"/>
<path d="M11.1604 481.255C14.1336 473.215 16.682 464.993 18.8057 456.659C21.0887 447.71 23.2655 437.936 30.088 432.091C27.9908 433.895 32.2515 441.795 32.4108 443.766C32.7957 448.199 31.6542 450.744 29.3978 455.135C24.5132 464.671 18.3677 473.494 11.1604 481.255Z" fill="#127370"/>
<path d="M228.549 415.421C243.415 424.747 258.879 433.025 274.793 440.157C251.339 414.791 230.992 386.238 214.413 355.434C219.125 372.717 223.837 390 228.549 407.269C221.369 400.459 213.657 393.286 205.308 388.14C210.976 406.234 218.356 426.118 231.244 440.003C231.085 436.787 230.806 416.847 228.549 415.421Z" fill="#127370"/>
<path d="M-52.192 420.554C-41.9186 418.386 -32.7866 412.388 -24.0927 406.221C-18.3056 402.11 -12.5583 397.845 -7.80648 392.462C-0.678783 384.394 4.73666 373.123 5.24104 362.021C-2.11231 371.068 -8.19142 380.283 -16.8854 388.043C-22.6725 393.203 -28.5658 398.195 -34.2865 403.439C-38.295 407.116 -47.2146 419.505 -52.192 420.554Z" fill="#127370"/>
<path d="M215.939 663.674C213.934 648.684 211.93 633.708 209.913 618.718C213.749 624.228 217.598 629.751 221.434 635.26C212.156 606.469 201.298 578.238 188.941 550.761C193.587 562.912 195.604 576.182 194.781 589.256C191.37 587.998 188.37 585.537 186.366 582.363C201.338 606.148 202.705 638.295 215.939 663.674Z" fill="#096969"/>
<path d="M77.5131 594.261C72.6418 603.364 68.9519 613.18 66.6025 623.346C71.0491 617.11 76.5707 611.74 82.8091 607.573C83.5258 607.098 84.455 606.636 85.1452 607.154C85.5832 607.489 85.7292 608.104 85.7956 608.678C86.0876 611.167 85.6097 613.698 85.7823 616.187C85.9681 618.69 87.0963 621.402 89.366 622.199C92.9233 613.11 95.1797 603.476 96.0425 593.688C93.5736 594.303 91.5163 596.037 89.2599 597.282C87.0034 598.526 84.1364 599.225 82.0127 597.757C79.889 596.289 78.3891 592.807 75.9601 593.576" fill="#096969"/>
</g>
</svg>
