<svg width="416" height="641" viewBox="0 0 416 641" fill="none" xmlns="http://www.w3.org/2000/svg">
<g opacity="0.3">
<path d="M143.151 641.595C129.613 651.495 113.871 657.396 97.9296 661.353C94.4653 662.22 90.9611 662.947 87.457 663.66C73.4803 666.471 58.5746 661.66 45.0094 664.835C49.9338 659.549 54.9112 654.431 59.2913 648.6C62.8618 643.832 64.9988 638.575 68.7684 633.988C78.1924 622.466 86.9925 610.301 97.4119 599.716C71.5557 626.018 35.4128 635.051 0 641.595C22.1264 628.87 44.2528 616.104 66.3925 603.379C79.6391 595.773 93.4963 587.509 101.248 573.861C84.4308 587.872 62.6495 584.894 41.5849 580.685C75.697 573.218 108.588 559.459 138.254 540.218C119.485 545.028 100.146 547.21 80.847 546.734C97.2128 540.498 113.818 534.094 127.861 523.229C139.86 513.972 149.509 501.779 160.367 491.068C179.48 472.247 202.549 457.635 218.211 435.597C230.117 418.846 237.351 398.291 251.978 384.154C263.552 372.884 278.83 366.633 290.577 355.615C299.815 346.959 306.73 335.521 317.282 328.753C364.203 368.157 416.685 405.674 442.701 462.626C463.301 507.694 501.103 540.875 537.803 572.589C547.306 580.755 556.81 588.991 567.23 595.829C552.629 591.2 540.736 588.306 526.494 582.629C516.752 578.783 506.837 574.518 499.284 566.982C530.556 607.994 569.884 644.196 612 672.581C572.897 670.288 535.626 662.723 499.085 647.761C518.344 669.785 539.396 690.424 562.133 708.35C539.329 708.588 518.318 698.967 499.377 685.585C480.463 672.162 464.296 654.935 448.289 637.862C452.722 666.932 470.601 693.15 484.445 718.753C450.784 699.946 418.809 677.965 393.815 647.664C396.55 670.078 403.438 692.507 411.562 713.44C410.194 709.958 404.699 706.043 402.085 703.54C398.461 700.072 394.745 696.8 391.094 693.402C384.617 687.375 379.52 678.16 375.326 670.19C375.644 684.341 375.99 698.464 376.335 712.615C376.441 717.69 376.587 722.766 377.45 727.73C361.601 698.939 344.652 670.33 333.675 639.26C324.582 665.883 310.593 688.606 293.43 710.154C289.13 715.523 284.444 720.711 280.489 726.332C277.171 731.086 274.476 736.288 270.919 741C280.25 713.579 281.484 683.194 274.423 655.005C263.897 674.329 250.956 690.004 233.382 702.407C222.366 710.182 210.3 716.222 198.341 722.277C190.776 726.094 183.21 729.87 175.657 733.673C185.891 716.586 192.129 696.814 193.709 676.664C164.999 701.26 129.214 712.055 92.2221 713.286C115.039 694.898 132.666 669.701 143.151 641.595Z" fill="#025D62"/>
<path d="M260.128 221.351C243.43 251.065 229.122 282.261 211.23 311.192C193.337 340.123 172.273 366.467 143.895 383.736C160.898 380.687 178.79 374.954 194.266 366.914C174.622 392.657 142.727 411.38 123.68 437.626C138.984 433.767 153.836 422.678 165.862 411.995C161.296 425.447 151.115 435.822 140.868 445.191C124.423 460.208 107.792 475.366 89.4482 487.713C127.051 497.557 166.658 493.46 201.407 475.408C197.518 486.762 189.9 501.374 185.068 512.323C199.111 503.877 209.451 494.746 222.087 484.119C221.649 498.829 216.207 516.882 209.318 529.69C240.218 513.316 264.827 492.607 287.511 465.089C289.966 473.646 288.851 482.819 287.71 491.67C285.254 510.659 283.688 530.515 281.232 549.504C291.493 536.332 301.766 523.146 312.026 509.974C321.769 497.473 332.759 488.594 338.652 473.66C348.182 511.442 372.34 542.904 395.541 573.415C390.192 544.624 387.338 511.288 390.391 482.134C411.522 513.945 437.537 539.66 469.738 558.551C459.067 534.626 449.47 509.862 445.289 483.784C463.022 500.899 486.011 510.771 509.173 517.595C532.334 524.418 554.594 526.236 577.556 533.773C550.864 510.617 526.109 483.602 506.903 453.301C514.575 459.272 524.583 460.404 534.087 461.341C550.2 462.935 562.77 465.145 578.884 466.739C539.011 441.975 502.881 415.057 467.946 383.064C481.857 389.469 495.926 389.916 511.058 388.546C465.969 363.069 427.928 323.93 402.669 277.059C385.361 244.926 362.65 211.409 345.913 178.954C342.621 172.564 339.316 165.978 334.192 161.112C325.644 153.016 312.345 151.045 302.018 156.372C291.758 161.658 285.453 172.634 279.719 183.038C272.738 195.748 267.229 208.724 260.128 221.351Z" fill="#096969"/>
<path d="M161.787 355.392C176.454 342.122 194.413 333.606 211.19 323.441C227.967 313.275 245.793 300.69 254.301 282.401C250.996 292.622 247.89 302.914 244.93 313.247C266.274 296.775 284.644 275.619 295.846 250.38C297.426 260.447 299.019 270.529 300.558 280.639C303.08 296.719 305.138 315.037 302.523 331.131C312.478 318.868 317.827 303.291 322.95 288.078C326.932 276.304 329.202 264.754 333.17 252.966C342.17 280.485 352.204 308.675 361.217 336.193C359.743 327.775 360.434 319.162 361.15 310.646C362.65 292.762 361.841 272.417 363.314 254.505C374.49 279.478 395.515 301.529 416.035 318.715C411.018 306.186 405.841 292.538 399.802 279.87C399.842 279.94 399.868 279.982 399.935 280.009C402.828 281.506 405.828 286.204 408.217 288.553C411.376 291.657 414.615 294.678 417.92 297.614C430.861 309.08 444.984 319.064 460.062 327.118C475.804 335.536 492.714 340.486 508.907 347.729C506.319 344.765 503.704 341.87 501.143 338.864C490.723 326.671 480.702 314.114 471.066 301.222C451.541 275.129 433.649 247.681 417.8 218.96C436.834 233.852 458.735 244.912 482.215 248.24C449.629 226.329 415.199 201.942 391.865 169.432C406.863 181.374 423.72 189.4 442.342 192.015C415.212 176.829 393.271 152.694 376.308 125.721C359.345 98.734 347.041 68.8662 335.759 38.7748C331.007 26.1342 326.401 13.3538 323.999 0C320.15 18.7652 313.831 33.3356 308.841 51.8351C305.814 63.0634 302.589 74.2218 298.089 84.8629C283.516 119.317 257.513 144.123 231.272 169.81C232.374 171.054 234.352 170.537 235.891 169.949C242.329 167.377 249.324 164.86 255.775 162.287C249.257 176.857 240.909 190.518 229.228 200.922C238.997 198.712 245.076 194.406 253.133 188.183C247.439 199.901 239.422 210.094 231.458 220.218C212.796 243.947 191.201 267.215 172.538 290.944C177.33 290.609 181.79 288.204 186.037 285.826C190.563 283.296 195.09 280.779 199.629 278.29C206.571 274.416 212.836 270.893 216.035 263.342C204.195 293.531 184.431 319.386 165.928 345.632C164.123 348.163 162.238 352.26 161.787 355.392Z" fill="#0F8A80"/>
<path d="M399.722 243.54C399.762 243.637 399.802 243.721 399.855 243.819C401.912 247.902 404.182 251.873 406.678 255.677C410.036 260.766 413.845 265.577 416.579 271.072C408.124 264.78 400.598 256.991 395.117 247.748C391.931 242.379 389.462 236.576 387.033 230.773C385.44 226.97 383.861 223.138 382.852 219.125C381.671 214.399 380.33 206.219 382.122 201.087C384.657 216.231 391.798 230.34 399.722 243.54Z" fill="#19807A"/>
<path d="M263.658 226.383C271.542 210.862 279.201 195.089 286.713 179.372C290.151 172.157 293.469 164.886 296.708 157.573C294.89 161.684 294.531 167.823 293.655 172.395C291.77 182.183 290.483 192.167 287.457 201.661C284.138 212.079 278.643 219.378 271.224 226.887C266.007 232.158 260.658 237.36 254.499 241.331C257.751 236.493 261.003 231.627 263.658 226.383Z" fill="#19807A"/>
<path d="M380.37 257.104C376.043 253.93 373.07 249.12 370.442 244.296C365.199 234.676 360.911 224.482 357.633 213.939C358.695 222.538 359.77 231.138 360.832 239.738C353.425 225.251 349.005 209.073 348.01 192.643C348.103 194.153 353.983 199.354 355.177 200.459C356.266 201.466 356.744 202.655 358.35 202.487C359.425 202.375 359.704 200.459 360.845 200.515C364.694 200.725 365.822 213.827 366.539 216.707C369.977 230.565 374.609 244.114 380.37 257.104Z" fill="#19807A"/>
<path d="M383.025 498.801C369.938 487.755 369.725 465.13 356.16 454.741C355.364 457.957 354.567 461.159 353.784 464.375C350.001 462.977 348.103 458.684 345.94 455.132C343.776 451.581 339.861 448.127 336.158 449.721C334.14 450.588 332.919 452.685 331.671 454.573C329.574 457.719 327.065 460.558 324.225 462.977C323.747 463.396 323.19 463.816 322.566 463.774C321.584 463.732 321 462.641 320.601 461.704C318.093 455.776 315.584 449.861 313.089 443.932C308.244 448.239 302.882 451.874 297.174 454.755C295.86 455.412 294.307 456.027 293.02 455.328C292.117 454.839 291.599 453.818 291.188 452.839C288.308 445.987 287.83 438.031 289.887 430.844C290.153 429.907 290.498 428.942 291.215 428.327C293.856 426.062 296.882 430.368 299.298 432.899C303.798 437.598 311.828 436.087 316.407 431.459C320.973 426.845 322.937 420.119 324.597 413.673C326.269 407.24 327.941 400.487 332.176 395.523C333.622 406.807 335.082 418.105 336.529 429.39C336.954 432.648 338.64 436.926 341.692 436.227C341.533 432.172 345.767 428.649 349.471 429.739C352.523 430.634 354.408 433.78 355.988 436.689C357.023 438.604 358.297 441.303 360.182 442.436C363.009 444.128 365.067 442.03 367.19 442.841C370.243 443.988 368.265 441.639 370.708 445.232C372.088 447.288 372.088 453.384 372.539 455.831C375.26 470.346 378.764 484.692 383.025 498.801Z" fill="#127370"/>
<path d="M239.331 497.457C248.94 484.635 255.311 469.156 257.634 453.005C249.909 460.989 242.808 469.659 236.424 478.874C235.07 477.881 235.76 475.658 236.583 474.147C245.264 458.067 253.958 441.987 262.638 425.906C266.434 432.436 260.714 441.665 264.271 448.363C268.983 441.679 273.35 434.716 277.239 427.458C280.637 439.847 275.925 450.306 270.43 461.255C262.651 476.734 249.139 484.355 239.331 497.457Z" fill="#127370"/>
<path d="M423.84 481.255C420.866 473.215 418.318 464.993 416.194 456.659C413.911 447.71 411.734 437.936 404.912 432.091C407.009 433.895 402.749 441.795 402.589 443.766C402.204 448.199 403.346 450.744 405.602 455.135C410.487 464.671 416.632 473.494 423.84 481.255Z" fill="#127370"/>
<path d="M206.451 415.421C191.585 424.747 176.122 433.025 160.207 440.157C183.661 414.791 204.009 386.238 220.587 355.434C215.875 372.717 211.163 390 206.451 407.269C213.632 400.459 221.343 393.286 229.692 388.14C224.024 406.234 216.645 426.118 203.756 440.003C203.916 436.787 204.194 416.847 206.451 415.421Z" fill="#127370"/>
<path d="M219.061 663.674C221.066 648.684 223.07 633.708 225.087 618.718C221.251 624.228 217.402 629.751 213.566 635.26C222.844 606.469 233.702 578.238 246.059 550.761C241.413 562.912 239.396 576.182 240.219 589.256C243.63 587.998 246.63 585.537 248.634 582.363C233.662 606.148 232.295 638.295 219.061 663.674Z" fill="#096969"/>
<path d="M357.487 594.261C362.358 603.364 366.048 613.18 368.397 623.346C363.951 617.11 358.429 611.74 352.191 607.573C351.474 607.098 350.545 606.636 349.855 607.154C349.417 607.489 349.271 608.104 349.204 608.678C348.912 611.167 349.39 613.698 349.218 616.187C349.032 618.69 347.904 621.402 345.634 622.199C342.077 613.11 339.82 603.476 338.958 593.688C341.426 594.303 343.484 596.037 345.74 597.282C347.997 598.526 350.864 599.225 352.987 597.757C355.111 596.289 356.611 592.807 359.04 593.576" fill="#096969"/>
</g>
</svg>
