<svg width="146" height="151" viewBox="0 0 146 151" fill="none" xmlns="http://www.w3.org/2000/svg">
<g filter="url(#filter0_f_1_6814)">
<path d="M62.8475 31.0909C70.2667 28.7405 84.404 53.5322 84.404 53.5322C84.404 53.5322 110.576 42.1697 115.106 48.5066C119.632 54.8292 100.419 75.9426 100.419 75.9426C100.419 75.9426 119.308 97.333 114.694 103.59C110.079 109.846 84.0632 98.1097 84.0632 98.1097C84.0632 98.1097 69.5655 122.681 62.1757 120.227C54.7859 117.773 57.9267 89.4042 57.9267 89.4042C57.9267 89.4042 30.0755 83.2004 30.1209 75.4297C30.1805 67.6545 58.1166 61.8599 58.1166 61.8599C58.1166 61.8599 55.4284 33.4412 62.8475 31.0909Z" fill="url(#paint0_linear_1_6814)"/>
</g>
<g filter="url(#filter1_f_1_6814)">
<path d="M62.8475 31.0909C70.2667 28.7405 84.404 53.5322 84.404 53.5322C84.404 53.5322 110.576 42.1697 115.106 48.5066C119.632 54.8292 100.419 75.9426 100.419 75.9426C100.419 75.9426 119.308 97.333 114.694 103.59C110.079 109.846 84.0632 98.1097 84.0632 98.1097C84.0632 98.1097 69.5655 122.681 62.1757 120.227C54.7859 117.773 57.9267 89.4042 57.9267 89.4042C57.9267 89.4042 30.0755 83.2004 30.1209 75.4297C30.1805 67.6545 58.1166 61.8599 58.1166 61.8599C58.1166 61.8599 55.4284 33.4412 62.8475 31.0909Z" fill="url(#paint1_linear_1_6814)"/>
</g>
<g filter="url(#filter2_f_1_6814)">
<path d="M62.8475 31.0909C70.2667 28.7405 84.404 53.5322 84.404 53.5322C84.404 53.5322 110.576 42.1697 115.106 48.5066C119.632 54.8292 100.419 75.9426 100.419 75.9426C100.419 75.9426 119.308 97.333 114.694 103.59C110.079 109.846 84.0632 98.1097 84.0632 98.1097C84.0632 98.1097 69.5655 122.681 62.1757 120.227C54.7859 117.773 57.9267 89.4042 57.9267 89.4042C57.9267 89.4042 30.0755 83.2004 30.1209 75.4297C30.1805 67.6545 58.1166 61.8599 58.1166 61.8599C58.1166 61.8599 55.4284 33.4412 62.8475 31.0909Z" fill="url(#paint2_linear_1_6814)"/>
</g>
<path d="M62.8472 31.0909C69.8961 28.8579 83.3523 52.4394 83.3523 52.4394C83.3523 52.4394 108.26 41.6344 112.563 47.6513C116.867 53.6682 98.5953 73.7469 98.5953 73.7469C98.5953 73.7469 116.574 94.0939 112.176 100.047C107.779 106 83.0395 94.83 83.0395 94.83C83.0395 94.83 69.2446 118.207 62.2216 115.872C55.1985 113.537 58.1816 86.5499 58.1816 86.5499C58.1816 86.5499 31.6817 80.6545 31.7357 73.2571C31.7896 65.8598 58.375 60.3521 58.375 60.3521C58.375 60.3521 55.7983 33.324 62.8472 31.0909Z" fill="url(#paint3_radial_1_6814)"/>
<path d="M98.0271 71.9525C98.0271 71.9525 115.735 91.445 111.306 97.251C106.859 103.047 82.3187 92.5042 82.3187 92.5042C82.3187 92.5042 68.3253 115.255 61.3518 113.077C54.3881 110.88 57.6418 84.7464 57.6418 84.7464C57.6418 84.7464 31.2812 79.3397 31.4118 72.1844C31.4118 72.1844 31.4118 72.1845 31.4216 72.1657C31.5897 65.0299 58.1008 59.4361 58.1008 59.4361C58.1008 59.4361 55.803 33.3381 62.8662 31.1005C69.9293 28.8629 83.078 51.5233 83.078 51.5233C83.078 51.5233 104.332 42.3928 110.937 45.534C111.486 45.7831 111.925 46.1298 112.253 46.5741C116.452 52.3579 98.0271 71.9525 98.0271 71.9525Z" fill="url(#paint4_linear_1_6814)"/>
<path d="M97.8377 71.3544C97.8377 71.3544 115.546 90.8469 111.117 96.6529C106.67 102.449 81.5744 90.1545 81.5744 90.1545C81.5744 90.1545 68.1359 114.657 61.1625 112.478C54.1987 110.281 57.4525 84.1483 57.4525 84.1483C57.4525 84.1483 31.0918 78.7416 31.2225 71.5863C31.2225 71.5863 31.2225 71.5863 31.2322 71.5675C31.4003 64.4317 57.9114 58.8379 57.9114 58.8379C57.9114 58.8379 55.6137 32.7399 62.6768 30.5023C69.7399 28.2647 82.8887 50.9252 82.8887 50.9252C82.8887 50.9252 104.143 41.7946 110.747 44.9358C111.296 45.185 111.735 45.5317 112.064 45.9759C116.262 51.7598 97.8377 71.3544 97.8377 71.3544Z" fill="url(#paint5_linear_1_6814)"/>
<path d="M110.904 45.5286C110.703 46.0311 110.412 46.5464 110.022 47.0461C101.55 58.1914 80.6114 63.2733 56.5569 65.3938C33.4252 67.4099 31.5026 71.8267 31.4077 72.1701C31.5758 65.0343 58.0868 59.4405 58.0868 59.4405C58.0868 59.4405 55.7891 33.3425 62.8523 31.1049C69.9154 28.8673 83.0641 51.5278 83.0641 51.5278C83.0641 51.5278 104.314 42.3829 110.904 45.5286Z" fill="#FEEA80"/>
<path d="M58.5876 41.4344C58.5876 41.4344 59.7 33.0749 61.9569 32.5323C64.2137 31.9897 63.8999 38.1218 63.3812 39.0069C62.8482 39.8966 59.4373 41.7919 58.5876 41.4344Z" fill="white"/>
<path d="M32.761 70.7542C32.918 71.9424 40.6483 67.1117 40.3385 66.0347C40.0383 64.9389 32.3978 67.8765 32.761 70.7542Z" fill="white"/>
<path d="M110.445 90.4256C109.499 89.5658 110.909 97.9252 111.302 97.2366C111.685 96.5668 113.797 93.4378 110.445 90.4256Z" fill="white"/>
<path d="M61.7296 88.4498C62.9175 87.9952 64.2502 88.5915 64.7191 89.7748C65.1738 90.9627 64.5775 92.2954 63.3942 92.7643C62.2063 93.219 60.8735 92.6227 60.4046 91.4393C59.9455 90.2372 60.5418 88.9045 61.7296 88.4498Z" fill="white" fill-opacity="0.4"/>
<path d="M79.9429 58.6432C81.1308 58.1885 82.4635 58.7848 82.9324 59.9682C83.3871 61.156 82.7908 62.4888 81.6074 62.9577C80.4196 63.4124 79.0726 62.8206 78.618 61.6327C78.1633 60.4448 78.7596 59.1121 79.9429 58.6432Z" fill="white" fill-opacity="0.4"/>
<path d="M66.2954 57.6548C69.6356 56.3772 73.3759 58.0442 74.649 61.3702C75.9265 64.7104 74.2596 68.4507 70.9336 69.7237C67.5934 71.0013 63.8531 69.3344 62.58 66.0084C61.2882 62.6726 62.9551 58.9323 66.2954 57.6548Z" fill="white" fill-opacity="0.4"/>
<path d="M65.4088 94.8214C66.207 94.5215 67.0987 94.9128 67.3986 95.711C67.6984 96.5091 67.3072 97.4009 66.509 97.7008C65.7109 98.0006 64.8191 97.6094 64.5192 96.8112C64.2194 96.013 64.6107 95.1213 65.4088 94.8214Z" fill="white" fill-opacity="0.4"/>
<path d="M92.8809 86.5726C93.6791 86.2728 94.5708 86.6641 94.8707 87.4622C95.1705 88.2604 94.7793 89.1521 93.9811 89.452C93.183 89.7518 92.2912 89.3606 91.9913 88.5624C91.6915 87.7643 92.0828 86.8725 92.8809 86.5726Z" fill="white" fill-opacity="0.4"/>
<defs>
<filter id="filter0_f_1_6814" x="0.120819" y="0.933594" width="145.676" height="149.466" filterUnits="userSpaceOnUse" color-interpolation-filters="sRGB">
<feFlood flood-opacity="0" result="BackgroundImageFix"/>
<feBlend mode="normal" in="SourceGraphic" in2="BackgroundImageFix" result="shape"/>
<feGaussianBlur stdDeviation="15" result="effect1_foregroundBlur_1_6814"/>
</filter>
<filter id="filter1_f_1_6814" x="10.1208" y="10.9336" width="125.676" height="129.466" filterUnits="userSpaceOnUse" color-interpolation-filters="sRGB">
<feFlood flood-opacity="0" result="BackgroundImageFix"/>
<feBlend mode="normal" in="SourceGraphic" in2="BackgroundImageFix" result="shape"/>
<feGaussianBlur stdDeviation="10" result="effect1_foregroundBlur_1_6814"/>
</filter>
<filter id="filter2_f_1_6814" x="20.1208" y="20.9336" width="105.676" height="109.466" filterUnits="userSpaceOnUse" color-interpolation-filters="sRGB">
<feFlood flood-opacity="0" result="BackgroundImageFix"/>
<feBlend mode="normal" in="SourceGraphic" in2="BackgroundImageFix" result="shape"/>
<feGaussianBlur stdDeviation="5" result="effect1_foregroundBlur_1_6814"/>
</filter>
<linearGradient id="paint0_linear_1_6814" x1="88.6587" y1="112.563" x2="89.6848" y2="22.5088" gradientUnits="userSpaceOnUse">
<stop stop-color="#6F41DA"/>
<stop offset="1" stop-color="#6EF07B"/>
</linearGradient>
<linearGradient id="paint1_linear_1_6814" x1="88.6587" y1="112.563" x2="89.6848" y2="22.5088" gradientUnits="userSpaceOnUse">
<stop stop-color="#6F41DA"/>
<stop offset="1" stop-color="#6EF07B"/>
</linearGradient>
<linearGradient id="paint2_linear_1_6814" x1="88.6587" y1="112.563" x2="89.6848" y2="22.5088" gradientUnits="userSpaceOnUse">
<stop stop-color="#6F41DA"/>
<stop offset="1" stop-color="#6EF07B"/>
</linearGradient>
<radialGradient id="paint3_radial_1_6814" cx="0" cy="0" r="1" gradientUnits="userSpaceOnUse" gradientTransform="translate(75.1258 69.846) rotate(-17.578) scale(41.6145 41.6145)">
<stop stop-color="#FFBD00"/>
<stop offset="1" stop-color="#FF772C"/>
</radialGradient>
<linearGradient id="paint4_linear_1_6814" x1="86.5098" y1="105.78" x2="62.8498" y2="31.0949" gradientUnits="userSpaceOnUse">
<stop stop-color="#FFF300"/>
<stop offset="1" stop-color="#FF9700"/>
</linearGradient>
<linearGradient id="paint5_linear_1_6814" x1="86.3052" y1="105.134" x2="62.6615" y2="30.5003" gradientUnits="userSpaceOnUse">
<stop stop-color="#FFDD55"/>
<stop offset="1" stop-color="#FFEC43"/>
</linearGradient>
</defs>
</svg>
