<svg width="164" height="169" viewBox="0 0 164 169" fill="none" xmlns="http://www.w3.org/2000/svg">
<g filter="url(#filter0_f_1_6860)">
<path d="M69.453 30.9206C78.3622 28.0982 95.3388 57.869 95.3388 57.869C95.3388 57.869 126.767 44.2246 132.207 51.8341C137.642 59.4265 114.571 84.7803 114.571 84.7803C114.571 84.7803 137.253 110.467 131.712 117.98C126.17 125.493 94.9296 111.399 94.9296 111.399C94.9296 111.399 77.5201 140.906 68.6462 137.959C59.7722 135.012 63.5438 100.945 63.5438 100.945C63.5438 100.945 30.0991 93.4958 30.1535 84.1644C30.2251 74.8277 63.7719 67.8693 63.7719 67.8693C63.7719 67.8693 60.5438 33.7431 69.453 30.9206Z" fill="url(#paint0_linear_1_6860)"/>
</g>
<g filter="url(#filter1_f_1_6860)">
<path d="M69.453 30.9206C78.3622 28.0982 95.3388 57.869 95.3388 57.869C95.3388 57.869 126.767 44.2246 132.207 51.8341C137.642 59.4265 114.571 84.7803 114.571 84.7803C114.571 84.7803 137.253 110.467 131.712 117.98C126.17 125.493 94.9296 111.399 94.9296 111.399C94.9296 111.399 77.5201 140.906 68.6462 137.959C59.7722 135.012 63.5438 100.945 63.5438 100.945C63.5438 100.945 30.0991 93.4958 30.1535 84.1644C30.2251 74.8277 63.7719 67.8693 63.7719 67.8693C63.7719 67.8693 60.5438 33.7431 69.453 30.9206Z" fill="url(#paint1_linear_1_6860)"/>
</g>
<g filter="url(#filter2_f_1_6860)">
<path d="M69.453 30.9206C78.3622 28.0982 95.3388 57.869 95.3388 57.869C95.3388 57.869 126.767 44.2246 132.207 51.8341C137.642 59.4265 114.571 84.7803 114.571 84.7803C114.571 84.7803 137.253 110.467 131.712 117.98C126.17 125.493 94.9296 111.399 94.9296 111.399C94.9296 111.399 77.5201 140.906 68.6462 137.959C59.7722 135.012 63.5438 100.945 63.5438 100.945C63.5438 100.945 30.0991 93.4958 30.1535 84.1644C30.2251 74.8277 63.7719 67.8693 63.7719 67.8693C63.7719 67.8693 60.5438 33.7431 69.453 30.9206Z" fill="url(#paint2_linear_1_6860)"/>
</g>
<path d="M69.4527 30.9208C77.9173 28.2392 94.076 56.5568 94.076 56.5568C94.076 56.5568 123.986 43.5817 129.153 50.8071C134.321 58.0324 112.38 82.1437 112.38 82.1437C112.38 82.1437 133.97 106.577 128.689 113.726C123.408 120.874 93.7004 107.461 93.7004 107.461C93.7004 107.461 77.135 135.533 68.7014 132.729C60.2678 129.926 63.8501 97.518 63.8501 97.518C63.8501 97.518 32.028 90.4386 32.0928 81.5556C32.1576 72.6725 64.0823 66.0587 64.0823 66.0587C64.0823 66.0587 60.9881 33.6023 69.4527 30.9208Z" fill="url(#paint3_radial_1_6860)"/>
<path d="M111.698 79.9889C111.698 79.9889 132.962 103.396 127.644 110.368C122.304 117.329 92.8347 104.668 92.8347 104.668C92.8347 104.668 76.0309 131.988 67.6569 129.372C59.2945 126.734 63.2017 95.3524 63.2017 95.3524C63.2017 95.3524 31.5469 88.8598 31.7038 80.2675C31.7038 80.2675 31.7038 80.2675 31.7155 80.2449C31.9174 71.676 63.7528 64.9587 63.7528 64.9587C63.7528 64.9587 60.9936 33.6192 69.4753 30.9323C77.957 28.2453 93.7465 55.4568 93.7465 55.4568C93.7465 55.4568 119.269 44.4925 127.2 48.2645C127.86 48.5637 128.387 48.9801 128.781 49.5136C133.823 56.459 111.698 79.9889 111.698 79.9889Z" fill="url(#paint4_linear_1_6860)"/>
<path d="M111.471 79.2707C111.471 79.2707 132.735 102.678 127.417 109.65C122.077 116.61 91.9409 101.847 91.9409 101.847C91.9409 101.847 75.8035 131.27 67.4295 128.654C59.0671 126.016 62.9744 94.6341 62.9744 94.6341C62.9744 94.6341 31.3195 88.1415 31.4764 79.5492C31.4764 79.5492 31.4764 79.5492 31.4881 79.5267C31.69 70.9577 63.5255 64.2405 63.5255 64.2405C63.5255 64.2405 60.7663 32.901 69.2479 30.214C77.7296 27.527 93.5191 54.7386 93.5191 54.7386C93.5191 54.7386 119.042 43.7742 126.973 47.5463C127.632 47.8455 128.159 48.2618 128.554 48.7953C133.596 55.7408 111.471 79.2707 111.471 79.2707Z" fill="url(#paint5_linear_1_6860)"/>
<path d="M127.161 48.2581C126.919 48.8615 126.57 49.4804 126.101 50.0804C115.928 63.4641 90.7845 69.5666 61.8989 72.113C34.1215 74.534 31.8127 79.8378 31.6987 80.2503C31.9007 71.6813 63.7361 64.964 63.7361 64.964C63.7361 64.964 60.9769 33.6245 69.4586 30.9376C77.9403 28.2506 93.7298 55.4621 93.7298 55.4621C93.7298 55.4621 119.247 44.4807 127.161 48.2581Z" fill="#FEEA80"/>
<path d="M64.3375 43.3417C64.3375 43.3417 65.6733 33.3033 68.3834 32.6517C71.0935 32.0002 70.7167 39.3638 70.0938 40.4267C69.4538 41.495 65.3579 43.771 64.3375 43.3417Z" fill="white"/>
<path d="M33.3239 78.55C33.5124 79.9768 42.7953 74.1759 42.4232 72.8826C42.0628 71.5667 32.8877 75.0943 33.3239 78.55Z" fill="white"/>
<path d="M126.61 102.172C125.474 101.14 127.167 111.178 127.639 110.351C128.099 109.547 130.635 105.789 126.61 102.172Z" fill="white"/>
<path d="M68.1108 99.7997C69.5372 99.2537 71.1375 99.9698 71.7006 101.391C72.2466 102.817 71.5306 104.418 70.1096 104.981C68.6832 105.527 67.0827 104.811 66.5196 103.39C65.9683 101.946 66.6843 100.346 68.1108 99.7997Z" fill="white" fill-opacity="0.4"/>
<path d="M89.9819 64.0067C91.4084 63.4608 93.0088 64.1768 93.5719 65.5978C94.1179 67.0242 93.4018 68.6247 91.9808 69.1878C90.5543 69.7337 88.9369 69.0231 88.3909 67.5966C87.8449 66.1702 88.5609 64.5698 89.9819 64.0067Z" fill="white" fill-opacity="0.4"/>
<path d="M73.5934 62.8198C77.6045 61.2857 82.0961 63.2874 83.6248 67.2814C85.1589 71.2925 83.1572 75.784 79.1632 77.3127C75.1521 78.8468 70.6606 76.8451 69.1319 72.8511C67.5807 68.8454 69.5823 64.354 73.5934 62.8198Z" fill="white" fill-opacity="0.4"/>
<path d="M72.5289 107.451C73.4873 107.091 74.5581 107.561 74.9182 108.519C75.2783 109.478 74.8085 110.548 73.85 110.908C72.8916 111.269 71.8207 110.799 71.4606 109.84C71.1005 108.882 71.5704 107.811 72.5289 107.451Z" fill="white" fill-opacity="0.4"/>
<path d="M105.518 97.5456C106.477 97.1855 107.548 97.6554 107.908 98.6138C108.268 99.5723 107.798 100.643 106.84 101.003C105.881 101.363 104.81 100.893 104.45 99.935C104.09 98.9765 104.56 97.9057 105.518 97.5456Z" fill="white" fill-opacity="0.4"/>
<defs>
<filter id="filter0_f_1_6860" x="0.153473" y="0.731934" width="162.883" height="167.434" filterUnits="userSpaceOnUse" color-interpolation-filters="sRGB">
<feFlood flood-opacity="0" result="BackgroundImageFix"/>
<feBlend mode="normal" in="SourceGraphic" in2="BackgroundImageFix" result="shape"/>
<feGaussianBlur stdDeviation="15" result="effect1_foregroundBlur_1_6860"/>
</filter>
<filter id="filter1_f_1_6860" x="10.1535" y="10.7319" width="142.883" height="147.434" filterUnits="userSpaceOnUse" color-interpolation-filters="sRGB">
<feFlood flood-opacity="0" result="BackgroundImageFix"/>
<feBlend mode="normal" in="SourceGraphic" in2="BackgroundImageFix" result="shape"/>
<feGaussianBlur stdDeviation="10" result="effect1_foregroundBlur_1_6860"/>
</filter>
<filter id="filter2_f_1_6860" x="20.1535" y="20.7319" width="122.883" height="127.434" filterUnits="userSpaceOnUse" color-interpolation-filters="sRGB">
<feFlood flood-opacity="0" result="BackgroundImageFix"/>
<feBlend mode="normal" in="SourceGraphic" in2="BackgroundImageFix" result="shape"/>
<feGaussianBlur stdDeviation="5" result="effect1_foregroundBlur_1_6860"/>
</filter>
<linearGradient id="paint0_linear_1_6860" x1="100.448" y1="128.756" x2="101.68" y2="20.615" gradientUnits="userSpaceOnUse">
<stop stop-color="#6F41DA"/>
<stop offset="1" stop-color="#6EF093"/>
</linearGradient>
<linearGradient id="paint1_linear_1_6860" x1="100.448" y1="128.756" x2="101.68" y2="20.615" gradientUnits="userSpaceOnUse">
<stop stop-color="#6F41DA"/>
<stop offset="1" stop-color="#6EF093"/>
</linearGradient>
<linearGradient id="paint2_linear_1_6860" x1="100.448" y1="128.756" x2="101.68" y2="20.615" gradientUnits="userSpaceOnUse">
<stop stop-color="#6F41DA"/>
<stop offset="1" stop-color="#6EF093"/>
</linearGradient>
<radialGradient id="paint3_radial_1_6860" cx="0" cy="0" r="1" gradientUnits="userSpaceOnUse" gradientTransform="translate(84.1973 77.4593) rotate(-17.578) scale(49.9722 49.9722)">
<stop stop-color="#FFBD00"/>
<stop offset="1" stop-color="#FF772C"/>
</radialGradient>
<linearGradient id="paint4_linear_1_6860" x1="97.8675" y1="120.61" x2="69.4556" y2="30.9255" gradientUnits="userSpaceOnUse">
<stop stop-color="#FFF300"/>
<stop offset="1" stop-color="#FF9700"/>
</linearGradient>
<linearGradient id="paint5_linear_1_6860" x1="97.6218" y1="119.834" x2="69.2296" y2="30.2115" gradientUnits="userSpaceOnUse">
<stop stop-color="#FFDD55"/>
<stop offset="1" stop-color="#FFEC43"/>
</linearGradient>
</defs>
</svg>
